<?xml version="1.0" encoding="UTF-8" standalone="no"?>
<!-- Created with Inkscape (http://www.inkscape.org/) -->

<svg
   xmlns:dc="http://purl.org/dc/elements/1.1/"
   xmlns:cc="http://creativecommons.org/ns#"
   xmlns:rdf="http://www.w3.org/1999/02/22-rdf-syntax-ns#"
   xmlns:svg="http://www.w3.org/2000/svg"
   xmlns="http://www.w3.org/2000/svg"
   xmlns:sodipodi="http://sodipodi.sourceforge.net/DTD/sodipodi-0.dtd"
   xmlns:inkscape="http://www.inkscape.org/namespaces/inkscape"
   width="681.42004"
   height="681.42004"
   id="svg2"
   version="1.1"
   inkscape:version="0.91 r13725"
   sodipodi:docname="QGIS_danger.svg"
   inkscape:export-filename="/home/alex/Dropbox/art/QGIS_danger.png"
   inkscape:export-xdpi="462.26993"
   inkscape:export-ydpi="462.26993">
  <defs
     id="defs4" />
  <sodipodi:namedview
     id="base"
     pagecolor="#ffffff"
     bordercolor="#666666"
     borderopacity="1.0"
     inkscape:pageopacity="0.0"
     inkscape:pageshadow="2"
     inkscape:zoom="0.49497475"
     inkscape:cx="-88.277647"
     inkscape:cy="349.49277"
     inkscape:document-units="px"
     inkscape:current-layer="layer1"
     showgrid="false"
     fit-margin-top="0.1"
     fit-margin-left="0.1"
     fit-margin-bottom="0.1"
     fit-margin-right="0.1"
     inkscape:window-width="1301"
     inkscape:window-height="744"
     inkscape:window-x="65"
     inkscape:window-y="24"
     inkscape:window-maximized="1" />
  <metadata
     id="metadata7">
    <rdf:RDF>
      <cc:Work
         rdf:about="">
        <dc:format>image/svg+xml</dc:format>
        <dc:type
           rdf:resource="http://purl.org/dc/dcmitype/StillImage" />
        <dc:title></dc:title>
      </cc:Work>
    </rdf:RDF>
  </metadata>
  <g
     inkscape:label="Layer 1"
     inkscape:groupmode="layer"
     id="layer1"
     transform="translate(89.259451,-81.90191)">
    <path
       inkscape:connector-curvature="0"
       style="fill:#ffdb00;fill-opacity:1;fill-rule:nonzero;stroke:none"
       d="m 273.54771,754.06881 c -12.20417,12.20418 -31.99003,12.20416 -44.19419,10e-6 L -80.006402,444.70891 c -12.20396,-12.20396 -12.20417,-31.99001 0,-44.19418 L 229.35346,91.154846 c 12.20388,-12.20388 31.99021,-12.20395 44.19418,0 L 582.90755,400.51479 c 12.20419,12.20416 12.2039,31.99028 2e-5,44.19418 z"
       id="path11-1"
       sodipodi:nodetypes="sssssssss" />
    <path
       inkscape:connector-curvature="0"
       style="fill:#000000;fill-rule:nonzero;stroke:none"
       d="m 577.01503,406.40732 c 8.93529,8.93529 8.93544,23.47368 2e-5,32.4091 l -309.3599,309.35986 c -8.93528,8.93528 -23.47381,8.93528 -32.40909,0 L -74.113852,438.81637 c -8.93543,-8.93543 -8.93529,-23.47383 -1e-5,-32.40911 L 235.246,97.047386 c 8.93542,-8.93542 23.47369,-8.93542 32.40911,0 z"
       id="path13-7"
       sodipodi:nodetypes="sssssssss" />
    <path
       inkscape:connector-curvature="0"
       style="fill:#ffdb00;fill-opacity:1;fill-rule:nonzero;stroke:none"
       d="m 568.17855,429.97792 c 4.06148,-4.06148 4.06098,-10.67045 0,-14.73143 L 258.81632,105.88428 c -4.06147,-4.06147 -10.66996,-4.06148 -14.73144,0 L -65.277366,415.24653 c -4.06092,4.06092 -4.06148,10.66996 0,14.73144 L 244.08484,739.34018 c 4.06098,4.06099 10.67052,4.06092 14.73144,0 z"
       id="path15-4"
       sodipodi:nodetypes="sssssssss" />
    <g
       transform="matrix(0.32217798,0,0,0.32217798,247.39819,418.76957)"
       id="g3341">
      <path
         inkscape:export-ydpi="150"
         inkscape:export-xdpi="150"
         inkscape:export-filename="/media/DADOS1/Alexandre/Dropbox/Trabalho/QGIS/User group Portugal/partilha/imagens_e_logos/QGIS_BWhite.png"
         inkscape:connector-curvature="0"
         style="fill:#000000"
         id="path5"
         d="m 304.22868,415.93102 c -94.82358,3.58041 -84.52041,-13.55982 -84.52041,-38.67979 l 0,-49.99234 c 97.6803,-65.38048 162.47038,-179.89628 162.47038,-310.066828 0,-91.814519 -32.41409,-175.554092 -85.68213,-239.982322 -33.17587,43.19339 -84.4823,109.88794 -140.9308,183.267195 0.99032,16.416531 1.65689,33.0806471 1.65689,50.182789 0,41.193698 -2.93289,80.76859 -8.34158,117.239196 -30.81434,-12.66472 -70.122606,-22.77746 -117.848636,-22.6251 -70.503492,0.26662 -114.0016,16.35939 -130.93234,27.97666 -5.903864,-37.956089 -9.522354,-79.378321 -9.522354,-122.609795 0,-185.362105 59.609927,-335.072525 133.312929,-335.072525 40.070062,0 75.893147,44.46938 100.327501,114.66816 29.4812,-38.24176 55.09633,-71.43668 74.14103,-96.11862 -50.06852,-28.50992 -107.469257,-44.73601 -168.507536,-44.73601 -6.075259,0 -11.845804,-0.32372 -17.863934,0 -186.1239,9.84612 -334.48213,170.94526 -334.48213,367.810372 0,203.187948 157.76632,367.810368 352.327019,367.810368 21.025351,0 41.288916,-2.24728 61.304902,-5.96099 l 0,58.92431 c 1.618799,25.04379 31.861789,78.50227 126.761549,79.14979 109.90698,0.72373 160.9087,-66.61837 170.22156,-86.90099 17.33068,-46.29767 13.97882,-75.96932 13.10276,-94.63313 -0.34282,11.19828 -37.99418,78.10233 -96.99467,80.3496 z M 91.156526,300.48203 c -19.730311,29.02413 -42.717272,45.82155 -67.246852,45.82155 -53.763197,0 -99.718066,-79.94966 -120.819602,-195.2082 17.045014,-12.15053 51.420703,-29.32885 96.42333641,-28.56706 71.20814759,1.19981 91.66216259,28.87177 91.66216259,43.44097 l 0,134.51274 z" />
      <g
         inkscape:export-ydpi="150"
         inkscape:export-xdpi="150"
         inkscape:export-filename="/media/DADOS1/Alexandre/Dropbox/Trabalho/QGIS/User group Portugal/partilha/imagens_e_logos/QGIS_BWhite.png"
         transform="matrix(19.044704,0,0,19.044704,-528.71049,-586.04894)"
         style="fill:#000000"
         id="g7">
        <path
           inkscape:connector-curvature="0"
           style="fill:#000000"
           id="path9"
           d="m 37.166,10.773 3.657,2.145 c 0,0 -9.979,12.929 -17.557,22.787 0.02,0.186 0.028,0.37 0.051,0.555 1.38,-0.525 3.431,-0.95 6.07,-0.96 0.064,0 0.126,0.007 0.19,0.007 7.093,-9.205 14.989,-19.483 14.989,-19.483 l 3.009,2.988 2.596,-14.142 0.021,-0.027 -13.026,6.13 z" />
        <path
           inkscape:connector-curvature="0"
           style="fill:#000000"
           id="path11"
           d="m 23.785,39.187 c 0.199,0.97 0.434,1.882 0.698,2.726 0.894,-1.156 1.852,-2.397 2.846,-3.688 -1.601,0.054 -2.845,0.57 -3.544,0.962 z" />
        <path
           inkscape:connector-curvature="0"
           style="fill:#000000"
           id="path13"
           d="m 15.23,45.668 -8.578,3.617 7.975,1.512 -0.001,0.001 3.516,7.356 1.276,-9.018 c -1.546,-0.955 -2.954,-2.12 -4.188,-3.468 z" />
      </g>
    </g>
  </g>
</svg>
