<?xml version="1.0" encoding="UTF-8" standalone="no"?>
<!-- Created with Inkscape (http://www.inkscape.org/) -->

<svg
   xmlns:dc="http://purl.org/dc/elements/1.1/"
   xmlns:cc="http://creativecommons.org/ns#"
   xmlns:rdf="http://www.w3.org/1999/02/22-rdf-syntax-ns#"
   xmlns:svg="http://www.w3.org/2000/svg"
   xmlns="http://www.w3.org/2000/svg"
   xmlns:sodipodi="http://sodipodi.sourceforge.net/DTD/sodipodi-0.dtd"
   xmlns:inkscape="http://www.inkscape.org/namespaces/inkscape"
   width="33.429596cm"
   height="25.600822cm"
   viewBox="0 0 1184.5132 907.11578"
   id="svg3383"
   version="1.1"
   inkscape:version="0.91 r13725"
   style="shape-rendering:crispEdges"
   sodipodi:docname="super-qgis.svg">
  <defs
     id="defs3385" />
  <sodipodi:namedview
     id="base"
     pagecolor="#ffffff"
     bordercolor="#666666"
     borderopacity="1.0"
     inkscape:pageopacity="0.0"
     inkscape:pageshadow="2"
     inkscape:zoom="0.35"
     inkscape:cx="-238.77911"
     inkscape:cy="572.12927"
     inkscape:document-units="px"
     inkscape:current-layer="layer1"
     showgrid="false"
     fit-margin-left="1"
     fit-margin-top="1"
     fit-margin-right="1"
     fit-margin-bottom="1"
     units="cm"
     inkscape:window-width="1301"
     inkscape:window-height="744"
     inkscape:window-x="65"
     inkscape:window-y="24"
     inkscape:window-maximized="1" />
  <metadata
     id="metadata3388">
    <rdf:RDF>
      <cc:Work
         rdf:about="">
        <dc:format>image/svg+xml</dc:format>
        <dc:type
           rdf:resource="http://purl.org/dc/dcmitype/StillImage" />
        <dc:title></dc:title>
      </cc:Work>
    </rdf:RDF>
  </metadata>
  <g
     inkscape:label="Layer 1"
     inkscape:groupmode="layer"
     id="layer1"
     transform="translate(-132.35054,-83.090019)">
    <g
       style="display:inline"
       id="g4250"
       transform="matrix(1.2968708,0,0,1.2968708,143.60898,99.07003)"
       inkscape:export-xdpi="299.9873"
       inkscape:export-ydpi="299.9873">
      <path
         inkscape:connector-curvature="0"
         id="path3777"
         d="M 172,24 31,160 448,646 509.37109,574.47461 c 12.51556,8.40277 30.72967,14.7171 56.47461,14.89062 69.61727,0.46936 101.93979,-42.20411 107.83789,-55.05078 10.97272,-29.32054 8.85561,-48.12476 8.29493,-59.95117 -0.22908,7.09679 -24.0798,49.48645 -61.45899,50.90234 -51.05246,1.93381 -53.99149,-5.64102 -53.72461,-17.71679 L 865,160 724,24 172,24 Z"
         style="display:inline;fill:#c80000;fill-opacity:1;stroke:#000000;stroke-width:18;stroke-linecap:butt;stroke-linejoin:miter;stroke-miterlimit:4;stroke-dasharray:none;stroke-opacity:1" />
      <path
         inkscape:connector-curvature="0"
         id="path3376"
         d="M 189.74609,68 91.414062,162.83594 228.68555,322.81445 c -3.39632,-16.16101 -5.20313,-32.94553 -5.20313,-50.17383 0,-88.1408 46.94499,-164.9574 116.10547,-204.64062 l -149.8418,0 z m 225.33399,0 c -32.98547,28.865288 -56.61328,107.60495 -56.61328,200.49414 0,27.38651 2.29172,53.62767 6.0332,77.67188 10.71764,-7.35305 38.28108,-17.55413 82.95117,-17.72071 30.23507,-0.11246 55.13205,6.30721 74.65625,14.32617 3.41469,-23.1061 5.2793,-48.17425 5.2793,-74.27734 0,-92.8888 -23.62614,-171.628555 -56.61133,-200.49414 l -55.69531,0 z m 138.45898,0 c 69.33382,39.52556 116.37305,116.32595 116.37305,204.64062 0,18.6704 -2.11129,36.83089 -6.08594,54.24024 L 804.58594,162.83594 706.25391,68 553.53906,68 Z M 424.81641,339.36719 c -27.20028,0.20493 -47.9841,10.65929 -58.43164,18.10937 13.36217,73.01813 42.4725,123.67383 76.54296,123.67383 15.54145,0 30.1062,-10.63102 42.60547,-29.0332 l 0,-85.21289 c 0,-9.23653 -12.95382,-26.75679 -58.06445,-27.52539 -0.89065,-0.0152 -1.77492,-0.0183 -2.65234,-0.0117 z M 375.05664,493.40039 448,578.41016 l 37.5332,-43.74219 0,-32.7793 c -12.68571,2.33725 -25.50809,3.76953 -38.83593,3.76953 -25.05842,0 -49.15334,-4.3096 -71.64063,-12.25781 z"
         style="display:inline;fill:#ffeb00;fill-opacity:1;stroke:#000000;stroke-width:18;stroke-linecap:butt;stroke-linejoin:round;stroke-miterlimit:4;stroke-dasharray:none;stroke-opacity:1" />
    </g>
  </g>
</svg>
