<?xml version="1.0" encoding="UTF-8" standalone="no"?>
<!-- Created with Inkscape (http://www.inkscape.org/) -->

<svg
   xmlns:dc="http://purl.org/dc/elements/1.1/"
   xmlns:cc="http://creativecommons.org/ns#"
   xmlns:rdf="http://www.w3.org/1999/02/22-rdf-syntax-ns#"
   xmlns:svg="http://www.w3.org/2000/svg"
   xmlns="http://www.w3.org/2000/svg"
   xmlns:sodipodi="http://sodipodi.sourceforge.net/DTD/sodipodi-0.dtd"
   xmlns:inkscape="http://www.inkscape.org/namespaces/inkscape"
   inkscape:version="0.91 r13725"
   version="1.1"
   id="svg2"
   viewBox="0 0 173.40278 78.208727"
   height="22.072241mm"
   width="48.938118mm"
   sodipodi:docname="tron-qgis.svg"
   style="enable-background:new"
   inkscape:export-filename="/home/alex/Repos/tshirts-designs/tron-qgis_black.png"
   inkscape:export-xdpi="1200"
   inkscape:export-ydpi="1200">
  <defs
     id="defs4">
    <inkscape:perspective
       sodipodi:type="inkscape:persp3d"
       inkscape:vp_x="0 : 526.1811 : 1"
       inkscape:vp_y="0 : 1000 : 0"
       inkscape:vp_z="744.09446 : 526.1811 : 1"
       inkscape:persp3d-origin="372.04722 : 350.7874 : 1"
       id="perspective4157" />
    <filter
       inkscape:collect="always"
       style="color-interpolation-filters:sRGB"
       id="filter5867">
      <feBlend
         inkscape:collect="always"
         mode="screen"
         in2="BackgroundImage"
         id="feBlend5869" />
    </filter>
    <filter
       inkscape:collect="always"
       style="color-interpolation-filters:sRGB"
       id="filter4434"
       x="-0.0039190068"
       width="1.007838"
       y="-0.012793182"
       height="1.0255864">
      <feGaussianBlur
         inkscape:collect="always"
         stdDeviation="0.22929443"
         id="feGaussianBlur4436" />
    </filter>
    <filter
       inkscape:collect="always"
       style="color-interpolation-filters:sRGB"
       id="filter4460"
       x="-0.0039049613"
       width="1.0078099"
       y="-0.012945176"
       height="1.0258904">
      <feGaussianBlur
         inkscape:collect="always"
         stdDeviation="0.22694091"
         id="feGaussianBlur4462" />
    </filter>
    <filter
       inkscape:collect="always"
       style="color-interpolation-filters:sRGB"
       id="filter4470"
       x="-0.0031808263"
       width="1.0063617"
       y="-0.052771538"
       height="1.1055431">
      <feGaussianBlur
         inkscape:collect="always"
         stdDeviation="0.18455866"
         id="feGaussianBlur4472" />
    </filter>
    <filter
       inkscape:collect="always"
       style="color-interpolation-filters:sRGB"
       id="filter4520"
       x="-0.003139691"
       width="1.0062793"
       y="-0.010187035"
       height="1.0203741">
      <feGaussianBlur
         inkscape:collect="always"
         stdDeviation="0.18419467"
         id="feGaussianBlur4522" />
    </filter>
    <filter
       inkscape:collect="always"
       style="color-interpolation-filters:sRGB"
       id="filter4701"
       x="-0.0036156862"
       width="1.0072314"
       y="-0.0035844492"
       height="1.0071689">
      <feGaussianBlur
         inkscape:collect="always"
         stdDeviation="0.064591835"
         id="feGaussianBlur4703" />
    </filter>
    <filter
       inkscape:collect="always"
       style="color-interpolation-filters:sRGB"
       id="filter4757"
       x="-0.010847059"
       width="1.0216941"
       y="-0.010753348"
       height="1.0215067">
      <feGaussianBlur
         inkscape:collect="always"
         stdDeviation="0.1937755"
         id="feGaussianBlur4759" />
    </filter>
    <filter
       inkscape:collect="always"
       style="color-interpolation-filters:sRGB"
       id="filter6249"
       x="-0.20234177"
       width="1.4046835"
       y="-0.17416665"
       height="1.3483334">
      <feGaussianBlur
         inkscape:collect="always"
         stdDeviation="3.3625631"
         id="feGaussianBlur6251" />
    </filter>
    <filter
       inkscape:collect="always"
       style="color-interpolation-filters:sRGB"
       id="filter6507"
       x="-0.16593504"
       width="1.3318701"
       y="-0.28593037"
       height="1.5718607">
      <feGaussianBlur
         inkscape:collect="always"
         stdDeviation="1.6668518"
         id="feGaussianBlur6509" />
    </filter>
    <filter
       inkscape:collect="always"
       style="color-interpolation-filters:sRGB"
       id="filter6771"
       x="-0.43193835"
       width="1.8638767"
       y="-0.14722504"
       height="1.29445">
      <feGaussianBlur
         inkscape:collect="always"
         stdDeviation="2.8518275"
         id="feGaussianBlur6773" />
    </filter>
    <filter
       inkscape:collect="always"
       style="color-interpolation-filters:sRGB"
       id="filter6911"
       x="-0.33401766"
       width="1.6680353"
       y="-0.32842949"
       height="1.656859">
      <feGaussianBlur
         inkscape:collect="always"
         stdDeviation="3.1570106"
         id="feGaussianBlur6913" />
    </filter>
    <filter
       inkscape:collect="always"
       style="color-interpolation-filters:sRGB"
       id="filter7065"
       x="-0.045908958"
       width="1.0918179"
       y="-0.49327138"
       height="1.9865428">
      <feGaussianBlur
         inkscape:collect="always"
         stdDeviation="2.7641459"
         id="feGaussianBlur7067" />
    </filter>
  </defs>
  <sodipodi:namedview
     inkscape:window-maximized="1"
     inkscape:window-y="24"
     inkscape:window-x="65"
     inkscape:window-height="744"
     inkscape:window-width="1301"
     inkscape:guide-bbox="true"
     showguides="true"
     showgrid="false"
     inkscape:current-layer="layer5"
     inkscape:document-units="px"
     inkscape:cy="-18.44373"
     inkscape:cx="47.153759"
     inkscape:zoom="0.98994949"
     inkscape:pageshadow="2"
     inkscape:pageopacity="0.0"
     borderopacity="1.0"
     bordercolor="#666666"
     pagecolor="#ffffff"
     id="base"
     fit-margin-top="0"
     fit-margin-left="0"
     fit-margin-right="0"
     fit-margin-bottom="0">
    <sodipodi:guide
       position="17.710389,86.223916"
       orientation="0,1"
       id="guide4152" />
    <sodipodi:guide
       position="91.564893,15.776165"
       orientation="0,1"
       id="guide4154" />
  </sodipodi:namedview>
  <metadata
     id="metadata7">
    <rdf:RDF>
      <cc:Work
         rdf:about="">
        <dc:format>image/svg+xml</dc:format>
        <dc:type
           rdf:resource="http://purl.org/dc/dcmitype/StillImage" />
        <dc:title></dc:title>
      </cc:Work>
    </rdf:RDF>
  </metadata>
  <g
     inkscape:groupmode="layer"
     id="layer2"
     inkscape:label="background"
     style="display:inline"
     transform="translate(-47.646753,-326.44883)"
     sodipodi:insensitive="true">
    <rect
       style="opacity:1;fill:#000000;fill-opacity:1;fill-rule:nonzero;stroke:#ffffff;stroke-width:0.96505958;stroke-linecap:round;stroke-linejoin:round;stroke-miterlimit:4;stroke-dasharray:none;stroke-dashoffset:0;stroke-opacity:1"
       id="rect4464"
       width="183.79355"
       height="88.638115"
       x="44.270767"
       y="321.97525" />
  </g>
  <g
     inkscape:groupmode="layer"
     id="layer7"
     inkscape:label="GLOW"
     style="display:inline"
     sodipodi:insensitive="true"
     transform="translate(-47.646753,-326.44883)">
    <path
       style="color:#000000;font-style:normal;font-variant:normal;font-weight:normal;font-stretch:normal;font-size:medium;line-height:normal;font-family:sans-serif;text-indent:0;text-align:start;text-decoration:none;text-decoration-line:none;text-decoration-style:solid;text-decoration-color:#000000;letter-spacing:normal;word-spacing:normal;text-transform:none;direction:ltr;block-progression:tb;writing-mode:lr-tb;baseline-shift:baseline;text-anchor:start;white-space:normal;clip-rule:nonzero;display:inline;overflow:visible;visibility:visible;opacity:0.35800003;isolation:auto;mix-blend-mode:normal;color-interpolation:sRGB;color-interpolation-filters:linearRGB;solid-color:#000000;solid-opacity:1;fill:#85f0fd;fill-opacity:1;fill-rule:nonzero;stroke:none;stroke-width:2.20349526;stroke-linecap:butt;stroke-linejoin:miter;stroke-miterlimit:4;stroke-dasharray:none;stroke-dashoffset:0;stroke-opacity:1;filter:url(#filter6911);color-rendering:auto;image-rendering:auto;shape-rendering:auto;text-rendering:auto;enable-background:accumulate"
       d="m 87.529297,361.6543 c -1.570973,6.71572 1.733327,11.46451 6.807352,15.49853 2.710058,5.78627 11.510911,6.10607 15.253191,3.86865 0.60203,-5.73714 0.37217,-11.12758 -5.11756,-14.36363 -3.84672,-4.89408 -8.140845,-8.7174 -14.749624,-7.00355 -2.014032,-0.17826 -2.577492,-0.255 -2.193359,2 z m 7.490234,4.20508 c 2.359599,2.13177 13.070419,12.48016 5.205499,8.51927 -0.962063,-2.02555 -9.921833,-7.68764 -5.205499,-8.51927 z"
       id="path4973"
       inkscape:connector-curvature="0" />
    <path
       style="color:#000000;font-style:normal;font-variant:normal;font-weight:normal;font-stretch:normal;font-size:medium;line-height:normal;font-family:sans-serif;text-indent:0;text-align:start;text-decoration:none;text-decoration-line:none;text-decoration-style:solid;text-decoration-color:#000000;letter-spacing:normal;word-spacing:normal;text-transform:none;direction:ltr;block-progression:tb;writing-mode:lr-tb;baseline-shift:baseline;text-anchor:start;white-space:normal;clip-rule:nonzero;display:inline;overflow:visible;visibility:visible;opacity:0.35800003;isolation:auto;mix-blend-mode:normal;color-interpolation:sRGB;color-interpolation-filters:linearRGB;solid-color:#000000;solid-opacity:1;fill:#85f0fd;fill-opacity:1;fill-rule:nonzero;stroke:none;stroke-width:2.20349526;stroke-linecap:butt;stroke-linejoin:miter;stroke-miterlimit:4;stroke-dasharray:none;stroke-dashoffset:0;stroke-opacity:1;filter:url(#filter6249);color-rendering:auto;image-rendering:auto;shape-rendering:auto;text-rendering:auto;enable-background:accumulate"
       d="m 79.880859,354.06836 c -1.60298,6.71058 1.801929,11.37832 6.863299,15.37165 6.706584,9.51893 2.808098,-3.12896 5.363264,-6.21931 8.506468,1.07279 10.293448,-0.67915 2.985784,-6.25753 -3.207098,-6.06273 -9.397093,-5.03263 -15.212347,-4.89481 l 0,1 0,1 z"
       id="path4969"
       inkscape:connector-curvature="0" />
    <path
       style="color:#000000;font-style:normal;font-variant:normal;font-weight:normal;font-stretch:normal;font-size:medium;line-height:normal;font-family:sans-serif;text-indent:0;text-align:start;text-decoration:none;text-decoration-line:none;text-decoration-style:solid;text-decoration-color:#000000;letter-spacing:normal;word-spacing:normal;text-transform:none;direction:ltr;block-progression:tb;writing-mode:lr-tb;baseline-shift:baseline;text-anchor:start;white-space:normal;clip-rule:nonzero;display:inline;overflow:visible;visibility:visible;opacity:0.35800003;isolation:auto;mix-blend-mode:normal;color-interpolation:sRGB;color-interpolation-filters:linearRGB;solid-color:#000000;solid-opacity:1;fill:#85f0fd;fill-opacity:1;fill-rule:nonzero;stroke:none;stroke-width:2.20349526;stroke-linecap:butt;stroke-linejoin:miter;stroke-miterlimit:4;stroke-dasharray:none;stroke-dashoffset:0;stroke-opacity:1;filter:url(#filter6249);color-rendering:auto;image-rendering:auto;shape-rendering:auto;text-rendering:auto;enable-background:accumulate"
       d="m 85.349609,334.79883 c -13.414605,-0.0381 -24.549036,13.28469 -21.964843,26.48633 1.559699,14.05272 17.55602,22.95159 30.578125,18.35742 8.450419,-0.73089 3.029595,-4.76708 -0.902192,-8.41703 -2.05851,-4.35298 -3.040977,-4.02082 -7.763824,-3.73336 -10.4765,-1.30832 -10.285687,-18.77622 0.410156,-19.51172 7.391967,-1.02192 12.020757,7.82699 9.199219,14.08203 3.752806,2.03883 8.7101,13.12206 11.53125,8.20312 7.59689,-11.48636 2.53579,-29.11023 -10.728516,-33.77734 -3.279182,-1.30096 -6.839918,-1.84409 -10.359375,-1.68945 z M 87.472656,341 c 10.5458,-0.26522 18.892594,10.85841 15.812504,20.86133 -3.05294,-2.66038 -0.54353,-7.70339 -3,-11.15625 -3.846849,-9.90714 -18.439094,-12.08431 -25.029301,-3.76172 -8.214997,8.65706 -2.931693,25.15496 9.126953,26.68164 3.65172,-0.086 3.562038,1.73279 -0.578124,0.74609 -14.623171,-0.90363 -19.911177,-22.23453 -7.875,-30.18164 3.322501,-2.37871 7.49193,-3.38425 11.542968,-3.18945 z"
       id="path4965"
       inkscape:connector-curvature="0" />
    <path
       style="color:#000000;font-style:normal;font-variant:normal;font-weight:normal;font-stretch:normal;font-size:medium;line-height:normal;font-family:sans-serif;text-indent:0;text-align:start;text-decoration:none;text-decoration-line:none;text-decoration-style:solid;text-decoration-color:#000000;letter-spacing:normal;word-spacing:normal;text-transform:none;direction:ltr;block-progression:tb;writing-mode:lr-tb;baseline-shift:baseline;text-anchor:start;white-space:normal;clip-rule:nonzero;display:inline;overflow:visible;visibility:visible;opacity:0.35800003;isolation:auto;mix-blend-mode:normal;color-interpolation:sRGB;color-interpolation-filters:linearRGB;solid-color:#000000;solid-opacity:1;fill:#85f0fd;fill-opacity:1;fill-rule:nonzero;stroke:none;stroke-width:2.20349526;stroke-linecap:butt;stroke-linejoin:miter;stroke-miterlimit:4;stroke-dasharray:none;stroke-dashoffset:0;stroke-opacity:1;filter:url(#filter6507);color-rendering:auto;image-rendering:auto;shape-rendering:auto;text-rendering:auto;enable-background:accumulate"
       d="m 124.20117,356.79297 c 0.0162,6.88742 6.42576,12.22677 13.19336,11.41406 6.20293,0.0699 14.75755,1.71367 8.65064,-6.46035 -0.71309,-7.36336 -5.97619,-7.93172 -12.23072,-7.02012 -2.25716,1.04028 -11.09105,-2.25394 -9.61328,2.06641 z m 14.4375,4.0332 c 1.07998,2.39535 -4.60056,1.16979 -6.10547,0 2.03516,0 4.07032,0 6.10547,0 z"
       id="path4899"
       inkscape:connector-curvature="0" />
    <path
       style="color:#000000;font-style:normal;font-variant:normal;font-weight:normal;font-stretch:normal;font-size:medium;line-height:normal;font-family:sans-serif;text-indent:0;text-align:start;text-decoration:none;text-decoration-line:none;text-decoration-style:solid;text-decoration-color:#000000;letter-spacing:normal;word-spacing:normal;text-transform:none;direction:ltr;block-progression:tb;writing-mode:lr-tb;baseline-shift:baseline;text-anchor:start;white-space:normal;clip-rule:nonzero;display:inline;overflow:visible;visibility:visible;opacity:0.35800003;isolation:auto;mix-blend-mode:normal;color-interpolation:sRGB;color-interpolation-filters:linearRGB;solid-color:#000000;solid-opacity:1;fill:#85f0fd;fill-opacity:1;fill-rule:nonzero;stroke:none;stroke-width:2.20349526;stroke-linecap:butt;stroke-linejoin:miter;stroke-miterlimit:4;stroke-dasharray:none;stroke-dashoffset:0;stroke-opacity:1;filter:url(#filter6249);color-rendering:auto;image-rendering:auto;shape-rendering:auto;text-rendering:auto;enable-background:accumulate"
       d="m 129.23633,334.62891 c -14.12543,0.27156 -24.22684,15.68138 -20.41016,28.92578 2.45441,11.27908 14.19737,18.71874 25.47461,17.07226 4.23481,-0.84347 11.73699,2.27484 13.41797,-2.90039 -0.70487,-5.54187 3.00337,-15.49686 -6,-12.74023 -5.79938,-0.77679 -15.62881,2.95138 -17.71094,-5.01758 -1.78596,-5.33003 3.0438,-11.50375 8.85547,-9.70313 4.8188,-1.46635 16.17751,3.6072 14.85547,-4 -0.22536,-4.42267 1.99446,-12.79204 -5.20508,-11.63867 -4.42576,10e-4 -8.85169,-0.003 -13.27734,0.002 z m 12.41601,6.09765 c 1.20076,6.73266 -8.7053,1.98108 -12.86132,3.56641 -11.71275,1.02413 -15.04293,18.43133 -5.51368,24.61133 5.39738,3.66263 12.31335,1.67466 18.375,2.18164 1.27598,6.61882 -8.63279,2.19929 -12.69531,3.39258 -13.21847,-0.62272 -19.39778,-18.487 -10.86133,-27.95704 5.5138,-7.39564 15.49759,-5.73504 23.55664,-5.79492 z"
       id="path4895"
       inkscape:connector-curvature="0" />
    <path
       style="color:#000000;font-style:normal;font-variant:normal;font-weight:normal;font-stretch:normal;font-size:medium;line-height:normal;font-family:sans-serif;text-indent:0;text-align:start;text-decoration:none;text-decoration-line:none;text-decoration-style:solid;text-decoration-color:#000000;letter-spacing:normal;word-spacing:normal;text-transform:none;direction:ltr;block-progression:tb;writing-mode:lr-tb;baseline-shift:baseline;text-anchor:start;white-space:normal;clip-rule:nonzero;display:inline;overflow:visible;visibility:visible;opacity:0.35800003;isolation:auto;mix-blend-mode:normal;color-interpolation:sRGB;color-interpolation-filters:linearRGB;solid-color:#000000;solid-opacity:1;fill:#85f0fd;fill-opacity:1;fill-rule:nonzero;stroke:none;stroke-width:2.20349526;stroke-linecap:butt;stroke-linejoin:miter;stroke-miterlimit:4;stroke-dasharray:none;stroke-dashoffset:0;stroke-opacity:1;filter:url(#filter6249);color-rendering:auto;image-rendering:auto;shape-rendering:auto;text-rendering:auto;enable-background:accumulate"
       d="m 177.78906,334.65039 c -11.86633,0.72137 -21.31092,12.34991 -20.29101,24.07617 4.73979,-1.0596 13.81993,2.32655 15.41601,-1.95312 0.29852,-6.63687 8.38038,-7.3859 13.37696,-6.44727 5.59178,-1.08358 13.21089,2.36896 17.2871,-2.10547 0.68297,-4.35649 2.58446,-14.48324 -4.77929,-13.59375 -7.00303,0.0204 -14.00732,-0.0379 -21.00977,0.0234 z m 1.99414,6.07422 c 6.08463,0.005 12.16927,3.2e-4 18.25391,0.002 0.88937,7.05604 -10.37768,1.95565 -15,3.5 -6.31618,-0.91742 -13.13173,2.32179 -15.51563,8.40039 -5.87268,1.63474 -1.76149,-3.97788 -0.0488,-6.20312 3.00238,-3.66737 7.49681,-5.98787 12.31054,-5.69922 z m 8.9375,17.75586 c -0.17919,6.12772 -7.40209,7.96905 -12.37695,6.74609 -5.70384,0.88414 -13.00884,-1.81163 -17.66656,1.41147 -1.7705,3.78885 -3.09272,13.72238 3.15679,13.98892 11.50162,-1.02229 25.42289,3.39092 34.78321,-5.59961 5.23075,-4.5801 7.95304,-11.59419 7.51953,-18.5 -4.45879,1.08235 -14.25591,-2.36457 -15.41602,1.95313 z m 8.85742,4.14648 c -2.28004,7.96232 -10.45312,13.31187 -18.70117,11.90039 -4.54626,-1.54684 -15.56843,3.38224 -15.27929,-3 8.59367,-1.7346 20.7073,3.28737 27.70703,-4.55468 2.43358,-1.94748 1.98729,-6.00905 6.27343,-4.34571 z"
       id="path4576-1"
       inkscape:connector-curvature="0" />
    <path
       style="color:#000000;font-style:normal;font-variant:normal;font-weight:normal;font-stretch:normal;font-size:medium;line-height:normal;font-family:sans-serif;text-indent:0;text-align:start;text-decoration:none;text-decoration-line:none;text-decoration-style:solid;text-decoration-color:#000000;letter-spacing:normal;word-spacing:normal;text-transform:none;direction:ltr;block-progression:tb;writing-mode:lr-tb;baseline-shift:baseline;text-anchor:start;white-space:normal;clip-rule:nonzero;display:inline;overflow:visible;visibility:visible;opacity:0.35800003;isolation:auto;mix-blend-mode:normal;color-interpolation:sRGB;color-interpolation-filters:linearRGB;solid-color:#000000;solid-opacity:1;fill:#85f0fd;fill-opacity:1;fill-rule:nonzero;stroke:none;stroke-width:2.20349526;stroke-linecap:butt;stroke-linejoin:miter;stroke-miterlimit:4;stroke-dasharray:none;stroke-dashoffset:0;stroke-opacity:1;filter:url(#filter6771);color-rendering:auto;image-rendering:auto;shape-rendering:auto;text-rendering:auto;enable-background:accumulate"
       d="m 146.61719,335.26172 c -3.65293,4.63144 -0.71559,11.86401 -1.66016,17.56445 0,8.61979 0,17.23959 0,25.85938 3.64895,3.11161 10.68385,2.83186 14.63086,0.60156 1.74308,-8.47126 0.25119,-18.49227 0.74805,-27.56055 -1.01631,-5.59558 2.32455,-12.91252 -2.25586,-17.09961 -3.66672,0.46934 -8.28569,-0.91763 -11.46289,0.63477 z m 7.75781,5.46484 c 0,11.26693 0,22.53386 0,33.80078 -7.00493,0.85259 -1.90813,-10.39655 -3.45703,-15 0,-6.26692 0,-12.53385 0,-18.80078 1.15234,0 2.30469,0 3.45703,0 z"
       id="path4572-5"
       inkscape:connector-curvature="0" />
  </g>
  <g
     inkscape:groupmode="layer"
     id="layer6"
     inkscape:label="3d"
     style="display:inline"
     sodipodi:insensitive="true"
     transform="translate(-47.646753,-326.44883)">
    <path
       id="path4592"
       style="color:#000000;font-style:normal;font-variant:normal;font-weight:normal;font-stretch:normal;font-size:medium;line-height:normal;font-family:sans-serif;text-indent:0;text-align:start;text-decoration:none;text-decoration-line:none;text-decoration-style:solid;text-decoration-color:#000000;letter-spacing:normal;word-spacing:normal;text-transform:none;direction:ltr;block-progression:tb;writing-mode:lr-tb;baseline-shift:baseline;text-anchor:start;white-space:normal;clip-rule:nonzero;display:inline;overflow:visible;visibility:visible;opacity:1;isolation:auto;mix-blend-mode:normal;color-interpolation:sRGB;color-interpolation-filters:linearRGB;solid-color:#000000;solid-opacity:1;fill:#166f98;fill-opacity:1;fill-rule:nonzero;stroke:none;stroke-width:2.20349526;stroke-linecap:butt;stroke-linejoin:miter;stroke-miterlimit:4;stroke-dasharray:none;stroke-dashoffset:0;stroke-opacity:1;filter:url(#filter4701);color-rendering:auto;image-rendering:auto;shape-rendering:auto;text-rendering:auto;enable-background:accumulate"
       d="m 89.528366,361.6543 0,7.63086 10.352055,10.73632 7.710269,0 0,-7.36132 -0.32081,-0.32227 -10.546401,-10.68359 -7.195113,0 z m 2.12853,2.20508 4.198565,0 9.606689,9.73046 0,4.22852 -4.69862,0 -9.106634,-9.44531 0,-4.51367 z m -9.77652,-9.79102 0,7.53906 7.22719,7.38867 0,-7.77539 7.35362,0 -6.998864,-7.15234 -7.581946,0 z m 2.128529,2.20312 4.579739,0 2.685193,2.74414 -4.2948,0 0,1.10352 0,3.60547 -2.970132,-3.03711 0,-4.41602 z m 2.515365,-19.49804 c -12.123211,-3.5e-4 -21.409846,8.9319 -21.409846,20.88086 0,12.00122 9.27708,21.10156 21.409846,21.10156 3.111652,0 5.391585,-0.51762 7.676296,-1.29492 l 1.668103,-0.56836 -6.662978,-6.70899 0,-0.88867 -1.279383,0.27539 c -0.251005,0.054 -0.327586,0.0293 -1.277496,0.0293 -6.065929,0 -11.240829,-5.14402 -11.240829,-11.89649 0,-6.75889 5.094584,-11.77148 11.240829,-11.77148 6.146205,0 10.991747,4.98723 10.991747,11.77148 0,1.10217 -0.131234,2.15881 -0.375512,3.16016 l -0.149074,0.60547 7.568737,7.83398 0.69064,-1.2539 c 1.67794,-3.04374 2.61349,-6.584 2.61348,-10.39453 0,-11.89609 -9.287139,-20.88086 -21.46456,-20.88086 z m 0,2.20508 c 1.39791,0 2.748743,0.1249 4.041943,0.36328 1.293202,0.23838 2.528138,0.59034 3.696624,1.04687 1.168485,0.45653 2.270934,1.01744 3.294694,1.67188 1.023758,0.65444 1.96958,1.40225 2.828599,2.23437 0.85902,0.83212 1.62974,1.74872 2.30403,2.73828 0.67428,0.98956 1.25141,2.05292 1.72093,3.17969 0.46954,1.12677 0.83272,2.31681 1.07748,3.56055 0.24477,1.24374 0.37174,2.54038 0.37174,3.88086 0,1.44447 -0.17608,2.82295 -0.48685,4.13867 -0.31076,1.31572 -0.75621,2.56868 -1.29448,3.76562 l -4.670307,-4.83203 c 0.1943,-0.97898 0.360415,-1.97301 0.360415,-3.02344 0,-0.98646 -0.09207,-1.94559 -0.266066,-2.86718 -0.17399,-0.92159 -0.429703,-1.80646 -0.76046,-2.64649 -0.330755,-0.84002 -0.735493,-1.63519 -1.205788,-2.37695 -0.470296,-0.74176 -1.005675,-1.42984 -1.598284,-2.05664 -0.592613,-0.6268 -1.242131,-1.19041 -1.939832,-1.68555 -0.697702,-0.49514 -1.444862,-0.92079 -2.23043,-1.26758 -0.785565,-0.34678 -1.610095,-0.61513 -2.466301,-0.79687 -0.856206,-0.18174 -1.743494,-0.27734 -2.653115,-0.27734 -0.909619,0 -1.801422,0.0943 -2.664437,0.27539 -0.863016,0.18108 -1.697366,0.44915 -2.494608,0.79492 -0.797242,0.34577 -1.557757,0.7696 -2.270055,1.26367 -0.712296,0.49407 -1.376938,1.05761 -1.985118,1.68359 -0.608181,0.62599 -1.158681,1.31514 -1.643573,2.05664 -0.484893,0.74151 -0.902984,1.53633 -1.245417,2.37696 -0.342432,0.84063 -0.609849,1.72702 -0.790651,2.65039 -0.180801,0.92337 -0.2755,1.88333 -0.2755,2.87304 0,0.99053 0.09547,1.95364 0.277388,2.88086 0.181918,0.92723 0.450274,1.81938 0.794424,2.66602 0.34415,0.84664 0.764382,1.64772 1.251078,2.39648 0.486696,0.74877 1.039679,1.44453 1.649233,2.07813 0.609555,0.63359 1.276167,1.2059 1.988893,1.70703 0.712727,0.50113 1.471956,0.93182 2.268168,1.2832 0.796212,0.35138 1.628936,0.62231 2.488947,0.80664 0.86001,0.18434 1.747105,0.28125 2.651228,0.28125 0.566622,0 0.776126,-0.0303 1.066152,-0.0469 l 4.05704,4.08594 c -1.552599,0.41259 -3.145932,0.71093 -5.247734,0.71093 -1.390108,0 -2.733748,-0.12567 -4.021185,-0.36718 -1.287441,-0.24151 -2.518959,-0.59814 -3.683415,-1.06055 -1.164457,-0.46241 -2.26221,-1.03065 -3.283373,-1.69336 -1.021161,-0.66271 -1.965389,-1.42128 -2.822944,-2.26367 -0.857555,-0.84239 -1.628498,-1.76806 -2.302134,-2.76953 -0.673635,-1.00147 -1.249649,-2.07882 -1.719051,-3.21875 -0.469404,-1.13994 -0.832618,-2.34377 -1.077476,-3.60157 -0.244857,-1.25779 -0.371737,-2.56878 -0.371737,-3.92382 0,-1.34781 0.12714,-2.65069 0.371737,-3.89844 0.244599,-1.24776 0.606583,-2.44021 1.075588,-3.56836 0.469004,-1.12815 1.045836,-2.19264 1.719053,-3.18164 0.673218,-0.989 1.443011,-1.90213 2.300246,-2.73242 0.857236,-0.8303 1.801883,-1.57648 2.822946,-2.22852 1.021061,-0.65204 2.118675,-1.20983 3.28337,-1.66406 1.164696,-0.45423 2.395278,-0.8061 3.683415,-1.04297 1.288136,-0.23687 2.633578,-0.35941 4.02496,-0.35937 z"
       inkscape:connector-curvature="0" />
    <path
       id="path4584"
       style="color:#000000;font-style:normal;font-variant:normal;font-weight:normal;font-stretch:normal;font-size:medium;line-height:normal;font-family:sans-serif;text-indent:0;text-align:start;text-decoration:none;text-decoration-line:none;text-decoration-style:solid;text-decoration-color:#000000;letter-spacing:normal;word-spacing:normal;text-transform:none;direction:ltr;block-progression:tb;writing-mode:lr-tb;baseline-shift:baseline;text-anchor:start;white-space:normal;clip-rule:nonzero;display:inline;overflow:visible;visibility:visible;opacity:1;isolation:auto;mix-blend-mode:normal;color-interpolation:sRGB;color-interpolation-filters:linearRGB;solid-color:#000000;solid-opacity:1;fill:#166f98;fill-opacity:1;fill-rule:nonzero;stroke:none;stroke-width:2.20349526;stroke-linecap:butt;stroke-linejoin:miter;stroke-miterlimit:4;stroke-dasharray:none;stroke-dashoffset:0;stroke-opacity:1;color-rendering:auto;image-rendering:auto;shape-rendering:auto;text-rendering:auto;enable-background:accumulate"
       d="m 126.19973,356.72656 c 0,0.52 0.0767,1.13938 0.22985,1.85938 0.19136,0.68 0.47877,1.45984 0.86149,2.33984 0.42099,0.84 0.99395,1.70008 1.72112,2.58008 0.76543,0.88 1.87577,1.56102 3.3301,2.04102 1.4926,0.43999 3.17776,0.66015 5.05308,0.66015 l 8.32338,0 -3.90381,-9.48047 -15.61521,0 z m 2.98625,2.09961 10.79199,0 2.18083,5.2793 -4.76343,0 c -1.68396,0 -3.29235,-0.29844 -4.82322,-0.89844 -0.7463,-0.3 -1.40141,-0.81492 -1.96592,-1.54492 -0.56451,-0.73 -1.03753,-1.67594 -1.42025,-2.83594 z m 0.11399,-22.19922 c -1.87532,0 -4.09411,0.5186 -6.65832,1.5586 -2.56422,1.04 -4.76522,2.5214 -6.60227,4.4414 -1.79878,1.88 -3.23397,4.10016 -4.30559,6.66016 -1.07161,2.56 -1.60712,5.39953 -1.60712,8.51953 0,2.88 0.53551,5.60016 1.60712,8.16016 1.07162,2.56 2.50681,4.79875 4.30559,6.71875 1.83705,1.88 4.03805,3.34086 6.60227,4.38086 2.56421,1.04 4.783,1.56054 6.65832,1.56054 l 15.21344,0 1.20534,-0.90039 0,-10.74023 -15.90113,0 c -1.18643,0 -2.21999,-0.19961 -3.10024,-0.59961 -0.84198,-0.44 -1.68457,-1.10047 -2.52655,-1.98047 -0.80371,-0.92 -1.41598,-1.94055 -1.83697,-3.06055 -0.42099,-1.12 -0.63164,-2.29906 -0.63164,-3.53906 0,-1.48 0.21065,-2.78039 0.63164,-3.90039 0.42099,-1.12 1.03326,-2.12 1.83697,-3 0.84198,-0.92 1.68456,-1.58047 2.52655,-1.98047 0.88025,-0.44 1.91381,-0.66016 3.10024,-0.66016 l 15.90113,0 0,-10.73828 -1.20534,-0.90039 -15.21344,0 z m 0.2878,2.09961 14.06415,0 0,7.43946 -13.72031,0 c -1.2247,0.12 -2.32076,0.34945 -3.28712,0.68945 -0.96637,0.34 -1.80356,0.79156 -2.51159,1.35156 -0.70803,0.56 -1.34348,1.18867 -1.90799,1.88867 -0.56451,0.7 -1.05718,1.47055 -1.47817,2.31055 -0.34445,0.78 -0.60331,1.61953 -0.77553,2.51953 -0.17223,0.9 -0.25789,1.86086 -0.25789,2.88086 0,0.9 0.0856,1.76938 0.25789,2.60938 0.17222,0.84 0.43108,1.64968 0.77553,2.42968 0.42099,0.84 0.91366,1.61055 1.47817,2.31055 0.56451,0.7 1.19996,1.33062 1.90799,1.89063 0.70803,0.56 1.54522,1.0096 2.51159,1.3496 0.96636,0.34 2.06242,0.56946 3.28712,0.68946 l 13.72031,0 0,7.4414 -14.06415,0 c -1.12902,-0.06 -2.19114,-0.19625 -3.18621,-0.40625 -0.99507,-0.21 -1.92332,-0.49547 -2.78443,-0.85547 -1.68396,-0.71999 -3.13882,-1.55953 -4.36352,-2.51953 -1.18643,-1 -2.20032,-2.05968 -3.04231,-3.17968 -0.8037,-1.12 -1.51241,-2.23938 -2.12476,-3.35938 -0.63149,-1.32 -1.1045,-2.68008 -1.42024,-4.08008 -0.31575,-1.4 -0.47279,-2.84031 -0.47279,-4.32031 0,-1.6 0.15704,-3.12984 0.47279,-4.58984 0.31574,-1.46 0.78875,-2.84993 1.42024,-4.16992 0.61235,-1.12001 1.32106,-2.24133 2.12476,-3.36133 0.84199,-1.12 1.85588,-2.15914 3.04231,-3.11914 1.2247,-1 2.67956,-1.86008 4.36352,-2.58008 0.86111,-0.36 1.78936,-0.64547 2.78443,-0.85547 0.99507,-0.21 2.05718,-0.3443 3.18621,-0.4043 z"
       inkscape:connector-curvature="0" />
    <path
       id="path4576"
       style="color:#000000;font-style:normal;font-variant:normal;font-weight:normal;font-stretch:normal;font-size:medium;line-height:normal;font-family:sans-serif;text-indent:0;text-align:start;text-decoration:none;text-decoration-line:none;text-decoration-style:solid;text-decoration-color:#000000;letter-spacing:normal;word-spacing:normal;text-transform:none;direction:ltr;block-progression:tb;writing-mode:lr-tb;baseline-shift:baseline;text-anchor:start;white-space:normal;clip-rule:nonzero;display:inline;overflow:visible;visibility:visible;opacity:1;isolation:auto;mix-blend-mode:normal;color-interpolation:sRGB;color-interpolation-filters:linearRGB;solid-color:#000000;solid-opacity:1;fill:#166f98;fill-opacity:1;fill-rule:nonzero;stroke:none;stroke-width:2.20349526;stroke-linecap:butt;stroke-linejoin:miter;stroke-miterlimit:4;stroke-dasharray:none;stroke-dashoffset:0;stroke-opacity:1;color-rendering:auto;image-rendering:auto;shape-rendering:auto;text-rendering:auto;enable-background:accumulate"
       d="m 178.70741,336.62695 c -2.30493,0 -4.60994,0.5186 -6.91486,1.5586 -2.26587,1 -4.31762,2.40117 -6.15375,4.20117 -1.79706,1.76 -3.26206,3.87937 -4.39497,6.35937 -1.13293,2.44 -1.69773,5.10047 -1.69773,7.98047 l 11.36707,0 c 0,-2.24 0.91836,-4.20086 2.75449,-5.88086 1.83614,-1.68 3.69293,-2.51953 5.56812,-2.51953 l 21.56292,0 1.2895,-1.43945 0,-8.82031 -1.2895,-1.43946 -22.09129,0 z m 2.05061,2.09961 19.27956,0 0,7.5 -19.80605,0 c -3.08627,0 -5.64641,0.94032 -7.67787,2.82032 -2.03147,1.84 -3.20306,3.70007 -3.51561,5.58007 l -7.32497,0 c 0,-0.72 0.13665,-1.54093 0.41012,-2.46093 0.27346,-0.96 0.72358,-2.05883 1.34865,-3.29883 0.62506,-1.24 1.44498,-2.48071 2.46073,-3.72071 1.01572,-1.24 2.22747,-2.35937 3.63386,-3.35937 1.4064,-1.04 2.90961,-1.81984 4.51135,-2.33984 1.64079,-0.52 3.86744,-0.76071 6.68023,-0.72071 z m 9.9631,19.80078 c 0,2.24 -0.91836,4.2586 -2.75448,6.0586 -1.83613,1.76 -3.69293,2.64062 -5.56813,2.64062 l -21.56481,0 -1.2876,1.43946 0,8.51953 1.2876,1.4414 22.09319,0 c 2.30493,0 4.58987,-0.5 6.85573,-1.5 2.30492,-1.04 4.35667,-2.44117 6.15373,-4.20117 1.83614,-1.8 3.31929,-3.91937 4.45223,-6.35937 1.13293,-2.48 1.69962,-5.15907 1.69962,-8.03907 l -11.36708,0 z m 1.87512,2.09961 7.32498,0 c 0,0.72 -0.13665,1.55953 -0.41013,2.51953 -0.27344,0.92 -0.72356,2.00024 -1.34862,3.24024 -0.62508,1.24 -1.445,2.47875 -2.46074,3.71875 -1.01573,1.24 -2.22748,2.38187 -3.63388,3.42187 -1.40639,1 -2.92967,1.7593 -4.57046,2.2793 -1.60174,0.52 -3.80831,0.7607 -6.62111,0.7207 l -19.27956,0 0,-7.20117 19.80604,0 c 3.08626,0 5.6445,-0.97945 7.67598,-2.93945 2.03146,-1.96 3.20498,-3.87977 3.5175,-5.75977 z"
       inkscape:connector-curvature="0" />
    <path
       style="color:#000000;font-style:normal;font-variant:normal;font-weight:normal;font-stretch:normal;font-size:medium;line-height:normal;font-family:sans-serif;text-indent:0;text-align:start;text-decoration:none;text-decoration-line:none;text-decoration-style:solid;text-decoration-color:#000000;letter-spacing:normal;word-spacing:normal;text-transform:none;direction:ltr;block-progression:tb;writing-mode:lr-tb;baseline-shift:baseline;text-anchor:start;white-space:normal;clip-rule:nonzero;display:inline;overflow:visible;visibility:visible;opacity:1;isolation:auto;mix-blend-mode:normal;color-interpolation:sRGB;color-interpolation-filters:linearRGB;solid-color:#000000;solid-opacity:1;fill:#166f98;fill-opacity:1;fill-rule:nonzero;stroke:none;stroke-width:2.20349526;stroke-linecap:butt;stroke-linejoin:miter;stroke-miterlimit:4;stroke-dasharray:none;stroke-dashoffset:0;stroke-opacity:1;color-rendering:auto;image-rendering:auto;shape-rendering:auto;text-rendering:auto;enable-background:accumulate"
       d="m 148.07739,336.62695 -1.12036,1.19922 0,19.80078 0,20.09961 1.12036,0.90039 9.1362,0 1.12219,-0.90039 0,-39.90039 -1.12219,-1.19922 -9.1362,0 z m 0.84118,2.09961 7.45567,0 0,37.80078 -7.45567,0 0,-37.80078 z"
       id="path4572"
       inkscape:connector-curvature="0" />
    <path
       inkscape:connector-curvature="0"
       d="m 89.528366,361.6543 0,7.63086 10.352055,10.73632 7.710269,0 0,-7.36132 -0.32081,-0.32227 -10.546401,-10.68359 -7.195113,0 z m 2.12853,2.20508 4.198565,0 9.606689,9.73046 0,4.22852 -4.69862,0 -9.106634,-9.44531 0,-4.51367 z m -9.77652,-9.79102 0,7.53906 7.22719,7.38867 0,-7.77539 7.35362,0 -6.998864,-7.15234 -7.581946,0 z m 2.128529,2.20312 4.579739,0 2.685193,2.74414 -4.2948,0 0,1.10352 0,3.60547 -2.970132,-3.03711 0,-4.41602 z m 2.515365,-19.49804 c -12.123211,-3.5e-4 -21.409846,8.9319 -21.409846,20.88086 0,12.00122 9.27708,21.10156 21.409846,21.10156 3.111652,0 5.391585,-0.51762 7.676296,-1.29492 l 1.668103,-0.56836 -6.662978,-6.70899 0,-0.88867 -1.279383,0.27539 c -0.251005,0.054 -0.327586,0.0293 -1.277496,0.0293 -6.065929,0 -11.240829,-5.14402 -11.240829,-11.89649 0,-6.75889 5.094584,-11.77148 11.240829,-11.77148 6.146205,0 10.991747,4.98723 10.991747,11.77148 0,1.10217 -0.131234,2.15881 -0.375512,3.16016 l -0.149074,0.60547 7.568737,7.83398 0.69064,-1.2539 c 1.67794,-3.04374 2.61349,-6.584 2.61348,-10.39453 0,-11.89609 -9.287139,-20.88086 -21.46456,-20.88086 z m 0,2.20508 c 1.39791,0 2.748743,0.1249 4.041943,0.36328 1.293202,0.23838 2.528138,0.59034 3.696624,1.04687 1.168485,0.45653 2.270934,1.01744 3.294694,1.67188 1.023758,0.65444 1.96958,1.40225 2.828599,2.23437 0.85902,0.83212 1.62974,1.74872 2.30403,2.73828 0.67428,0.98956 1.25141,2.05292 1.72093,3.17969 0.46954,1.12677 0.83272,2.31681 1.07748,3.56055 0.24477,1.24374 0.37174,2.54038 0.37174,3.88086 0,1.44447 -0.17608,2.82295 -0.48685,4.13867 -0.31076,1.31572 -0.75621,2.56868 -1.29448,3.76562 l -4.670307,-4.83203 c 0.1943,-0.97898 0.360415,-1.97301 0.360415,-3.02344 0,-0.98646 -0.09207,-1.94559 -0.266066,-2.86718 -0.17399,-0.92159 -0.429703,-1.80646 -0.76046,-2.64649 -0.330755,-0.84002 -0.735493,-1.63519 -1.205788,-2.37695 -0.470296,-0.74176 -1.005675,-1.42984 -1.598284,-2.05664 -0.592613,-0.6268 -1.242131,-1.19041 -1.939832,-1.68555 -0.697702,-0.49514 -1.444862,-0.92079 -2.23043,-1.26758 -0.785565,-0.34678 -1.610095,-0.61513 -2.466301,-0.79687 -0.856206,-0.18174 -1.743494,-0.27734 -2.653115,-0.27734 -0.909619,0 -1.801422,0.0943 -2.664437,0.27539 -0.863016,0.18108 -1.697366,0.44915 -2.494608,0.79492 -0.797242,0.34577 -1.557757,0.7696 -2.270055,1.26367 -0.712296,0.49407 -1.376938,1.05761 -1.985118,1.68359 -0.608181,0.62599 -1.158681,1.31514 -1.643573,2.05664 -0.484893,0.74151 -0.902984,1.53633 -1.245417,2.37696 -0.342432,0.84063 -0.609849,1.72702 -0.790651,2.65039 -0.180801,0.92337 -0.2755,1.88333 -0.2755,2.87304 0,0.99053 0.09547,1.95364 0.277388,2.88086 0.181918,0.92723 0.450274,1.81938 0.794424,2.66602 0.34415,0.84664 0.764382,1.64772 1.251078,2.39648 0.486696,0.74877 1.039679,1.44453 1.649233,2.07813 0.609555,0.63359 1.276167,1.2059 1.988893,1.70703 0.712727,0.50113 1.471956,0.93182 2.268168,1.2832 0.796212,0.35138 1.628936,0.62231 2.488947,0.80664 0.86001,0.18434 1.747105,0.28125 2.651228,0.28125 0.566622,0 0.776126,-0.0303 1.066152,-0.0469 l 4.05704,4.08594 c -1.552599,0.41259 -3.145932,0.71093 -5.247734,0.71093 -1.390108,0 -2.733748,-0.12567 -4.021185,-0.36718 -1.287441,-0.24151 -2.518959,-0.59814 -3.683415,-1.06055 -1.164457,-0.46241 -2.26221,-1.03065 -3.283373,-1.69336 -1.021161,-0.66271 -1.965389,-1.42128 -2.822944,-2.26367 -0.857555,-0.84239 -1.628498,-1.76806 -2.302134,-2.76953 -0.673635,-1.00147 -1.249649,-2.07882 -1.719051,-3.21875 -0.469404,-1.13994 -0.832618,-2.34377 -1.077476,-3.60157 -0.244857,-1.25779 -0.371737,-2.56878 -0.371737,-3.92382 0,-1.34781 0.12714,-2.65069 0.371737,-3.89844 0.244599,-1.24776 0.606583,-2.44021 1.075588,-3.56836 0.469004,-1.12815 1.045836,-2.19264 1.719053,-3.18164 0.673218,-0.989 1.443011,-1.90213 2.300246,-2.73242 0.857236,-0.8303 1.801883,-1.57648 2.822946,-2.22852 1.021061,-0.65204 2.118675,-1.20983 3.28337,-1.66406 1.164696,-0.45423 2.395278,-0.8061 3.683415,-1.04297 1.288136,-0.23687 2.633578,-0.35941 4.02496,-0.35937 z"
       style="color:#000000;font-style:normal;font-variant:normal;font-weight:normal;font-stretch:normal;font-size:medium;line-height:normal;font-family:sans-serif;text-indent:0;text-align:start;text-decoration:none;text-decoration-line:none;text-decoration-style:solid;text-decoration-color:#000000;letter-spacing:normal;word-spacing:normal;text-transform:none;direction:ltr;block-progression:tb;writing-mode:lr-tb;baseline-shift:baseline;text-anchor:start;white-space:normal;clip-rule:nonzero;display:inline;overflow:visible;visibility:visible;opacity:1;isolation:auto;mix-blend-mode:normal;color-interpolation:sRGB;color-interpolation-filters:linearRGB;solid-color:#000000;solid-opacity:1;fill:none;fill-opacity:1;fill-rule:nonzero;stroke:#49c6e6;stroke-width:0.403;stroke-linecap:butt;stroke-linejoin:miter;stroke-miterlimit:4;stroke-dasharray:none;stroke-dashoffset:0;stroke-opacity:1;filter:url(#filter4757);color-rendering:auto;image-rendering:auto;shape-rendering:auto;text-rendering:auto;enable-background:accumulate"
       id="path4639" />
    <path
       inkscape:connector-curvature="0"
       d="m 126.19973,356.72656 c 0,0.52 0.0767,1.13938 0.22985,1.85938 0.19136,0.68 0.47877,1.45984 0.86149,2.33984 0.42099,0.84 0.99395,1.70008 1.72112,2.58008 0.76543,0.88 1.87577,1.56102 3.3301,2.04102 1.4926,0.43999 3.17776,0.66015 5.05308,0.66015 l 8.32338,0 -3.90381,-9.48047 -15.61521,0 z m 2.98625,2.09961 10.79199,0 2.18083,5.2793 -4.76343,0 c -1.68396,0 -3.29235,-0.29844 -4.82322,-0.89844 -0.7463,-0.3 -1.40141,-0.81492 -1.96592,-1.54492 -0.56451,-0.73 -1.03753,-1.67594 -1.42025,-2.83594 z m 0.11399,-22.19922 c -1.87532,0 -4.09411,0.5186 -6.65832,1.5586 -2.56422,1.04 -4.76522,2.5214 -6.60227,4.4414 -1.79878,1.88 -3.23397,4.10016 -4.30559,6.66016 -1.07161,2.56 -1.60712,5.39953 -1.60712,8.51953 0,2.88 0.53551,5.60016 1.60712,8.16016 1.07162,2.56 2.50681,4.79875 4.30559,6.71875 1.83705,1.88 4.03805,3.34086 6.60227,4.38086 2.56421,1.04 4.783,1.56054 6.65832,1.56054 l 15.21344,0 1.20534,-0.90039 0,-10.74023 -15.90113,0 c -1.18643,0 -2.21999,-0.19961 -3.10024,-0.59961 -0.84198,-0.44 -1.68457,-1.10047 -2.52655,-1.98047 -0.80371,-0.92 -1.41598,-1.94055 -1.83697,-3.06055 -0.42099,-1.12 -0.63164,-2.29906 -0.63164,-3.53906 0,-1.48 0.21065,-2.78039 0.63164,-3.90039 0.42099,-1.12 1.03326,-2.12 1.83697,-3 0.84198,-0.92 1.68456,-1.58047 2.52655,-1.98047 0.88025,-0.44 1.91381,-0.66016 3.10024,-0.66016 l 15.90113,0 0,-10.73828 -1.20534,-0.90039 -15.21344,0 z m 0.2878,2.09961 14.06415,0 0,7.43946 -13.72031,0 c -1.2247,0.12 -2.32076,0.34945 -3.28712,0.68945 -0.96637,0.34 -1.80356,0.79156 -2.51159,1.35156 -0.70803,0.56 -1.34348,1.18867 -1.90799,1.88867 -0.56451,0.7 -1.05718,1.47055 -1.47817,2.31055 -0.34445,0.78 -0.60331,1.61953 -0.77553,2.51953 -0.17223,0.9 -0.25789,1.86086 -0.25789,2.88086 0,0.9 0.0856,1.76938 0.25789,2.60938 0.17222,0.84 0.43108,1.64968 0.77553,2.42968 0.42099,0.84 0.91366,1.61055 1.47817,2.31055 0.56451,0.7 1.19996,1.33062 1.90799,1.89063 0.70803,0.56 1.54522,1.0096 2.51159,1.3496 0.96636,0.34 2.06242,0.56946 3.28712,0.68946 l 13.72031,0 0,7.4414 -14.06415,0 c -1.12902,-0.06 -2.19114,-0.19625 -3.18621,-0.40625 -0.99507,-0.21 -1.92332,-0.49547 -2.78443,-0.85547 -1.68396,-0.71999 -3.13882,-1.55953 -4.36352,-2.51953 -1.18643,-1 -2.20032,-2.05968 -3.04231,-3.17968 -0.8037,-1.12 -1.51241,-2.23938 -2.12476,-3.35938 -0.63149,-1.32 -1.1045,-2.68008 -1.42024,-4.08008 -0.31575,-1.4 -0.47279,-2.84031 -0.47279,-4.32031 0,-1.6 0.15704,-3.12984 0.47279,-4.58984 0.31574,-1.46 0.78875,-2.84993 1.42024,-4.16992 0.61235,-1.12001 1.32106,-2.24133 2.12476,-3.36133 0.84199,-1.12 1.85588,-2.15914 3.04231,-3.11914 1.2247,-1 2.67956,-1.86008 4.36352,-2.58008 0.86111,-0.36 1.78936,-0.64547 2.78443,-0.85547 0.99507,-0.21 2.05718,-0.3443 3.18621,-0.4043 z"
       style="color:#000000;font-style:normal;font-variant:normal;font-weight:normal;font-stretch:normal;font-size:medium;line-height:normal;font-family:sans-serif;text-indent:0;text-align:start;text-decoration:none;text-decoration-line:none;text-decoration-style:solid;text-decoration-color:#000000;letter-spacing:normal;word-spacing:normal;text-transform:none;direction:ltr;block-progression:tb;writing-mode:lr-tb;baseline-shift:baseline;text-anchor:start;white-space:normal;clip-rule:nonzero;display:inline;overflow:visible;visibility:visible;opacity:1;isolation:auto;mix-blend-mode:normal;color-interpolation:sRGB;color-interpolation-filters:linearRGB;solid-color:#000000;solid-opacity:1;fill:none;fill-opacity:1;fill-rule:nonzero;stroke:#49c6e6;stroke-width:0.403;stroke-linecap:butt;stroke-linejoin:miter;stroke-miterlimit:4;stroke-dasharray:none;stroke-dashoffset:0;stroke-opacity:1;filter:url(#filter4757);color-rendering:auto;image-rendering:auto;shape-rendering:auto;text-rendering:auto;enable-background:accumulate"
       id="path4761" />
    <path
       inkscape:connector-curvature="0"
       d="m 178.70741,336.62695 c -2.30493,0 -4.60994,0.5186 -6.91486,1.5586 -2.26587,1 -4.31762,2.40117 -6.15375,4.20117 -1.79706,1.76 -3.26206,3.87937 -4.39497,6.35937 -1.13293,2.44 -1.69773,5.10047 -1.69773,7.98047 l 11.36707,0 c 0,-2.24 0.91836,-4.20086 2.75449,-5.88086 1.83614,-1.68 3.69293,-2.51953 5.56812,-2.51953 l 21.56292,0 1.2895,-1.43945 0,-8.82031 -1.2895,-1.43946 -22.09129,0 z m 2.05061,2.09961 19.27956,0 0,7.5 -19.80605,0 c -3.08627,0 -5.64641,0.94032 -7.67787,2.82032 -2.03147,1.84 -3.20306,3.70007 -3.51561,5.58007 l -7.32497,0 c 0,-0.72 0.13665,-1.54093 0.41012,-2.46093 0.27346,-0.96 0.72358,-2.05883 1.34865,-3.29883 0.62506,-1.24 1.44498,-2.48071 2.46073,-3.72071 1.01572,-1.24 2.22747,-2.35937 3.63386,-3.35937 1.4064,-1.04 2.90961,-1.81984 4.51135,-2.33984 1.64079,-0.52 3.86744,-0.76071 6.68023,-0.72071 z m 9.9631,19.80078 c 0,2.24 -0.91836,4.2586 -2.75448,6.0586 -1.83613,1.76 -3.69293,2.64062 -5.56813,2.64062 l -21.56481,0 -1.2876,1.43946 0,8.51953 1.2876,1.4414 22.09319,0 c 2.30493,0 4.58987,-0.5 6.85573,-1.5 2.30492,-1.04 4.35667,-2.44117 6.15373,-4.20117 1.83614,-1.8 3.31929,-3.91937 4.45223,-6.35937 1.13293,-2.48 1.69962,-5.15907 1.69962,-8.03907 l -11.36708,0 z m 1.87512,2.09961 7.32498,0 c 0,0.72 -0.13665,1.55953 -0.41013,2.51953 -0.27344,0.92 -0.72356,2.00024 -1.34862,3.24024 -0.62508,1.24 -1.445,2.47875 -2.46074,3.71875 -1.01573,1.24 -2.22748,2.38187 -3.63388,3.42187 -1.40639,1 -2.92967,1.7593 -4.57046,2.2793 -1.60174,0.52 -3.80831,0.7607 -6.62111,0.7207 l -19.27956,0 0,-7.20117 19.80604,0 c 3.08626,0 5.6445,-0.97945 7.67598,-2.93945 2.03146,-1.96 3.20498,-3.87977 3.5175,-5.75977 z"
       style="color:#000000;font-style:normal;font-variant:normal;font-weight:normal;font-stretch:normal;font-size:medium;line-height:normal;font-family:sans-serif;text-indent:0;text-align:start;text-decoration:none;text-decoration-line:none;text-decoration-style:solid;text-decoration-color:#000000;letter-spacing:normal;word-spacing:normal;text-transform:none;direction:ltr;block-progression:tb;writing-mode:lr-tb;baseline-shift:baseline;text-anchor:start;white-space:normal;clip-rule:nonzero;display:inline;overflow:visible;visibility:visible;opacity:1;isolation:auto;mix-blend-mode:normal;color-interpolation:sRGB;color-interpolation-filters:linearRGB;solid-color:#000000;solid-opacity:1;fill:none;fill-opacity:1;fill-rule:nonzero;stroke:#49c6e6;stroke-width:0.403;stroke-linecap:butt;stroke-linejoin:miter;stroke-miterlimit:4;stroke-dasharray:none;stroke-dashoffset:0;stroke-opacity:1;filter:url(#filter4757);color-rendering:auto;image-rendering:auto;shape-rendering:auto;text-rendering:auto;enable-background:accumulate"
       id="path4796" />
    <path
       inkscape:connector-curvature="0"
       id="path4798"
       d="m 148.07739,336.62695 -1.12036,1.19922 0,19.80078 0,20.09961 1.12036,0.90039 9.1362,0 1.12219,-0.90039 0,-39.90039 -1.12219,-1.19922 -9.1362,0 z m 0.84118,2.09961 7.45567,0 0,37.80078 -7.45567,0 0,-37.80078 z"
       style="color:#000000;font-style:normal;font-variant:normal;font-weight:normal;font-stretch:normal;font-size:medium;line-height:normal;font-family:sans-serif;text-indent:0;text-align:start;text-decoration:none;text-decoration-line:none;text-decoration-style:solid;text-decoration-color:#000000;letter-spacing:normal;word-spacing:normal;text-transform:none;direction:ltr;block-progression:tb;writing-mode:lr-tb;baseline-shift:baseline;text-anchor:start;white-space:normal;clip-rule:nonzero;display:inline;overflow:visible;visibility:visible;opacity:1;isolation:auto;mix-blend-mode:normal;color-interpolation:sRGB;color-interpolation-filters:linearRGB;solid-color:#000000;solid-opacity:1;fill:none;fill-opacity:1;fill-rule:nonzero;stroke:#49c6e6;stroke-width:0.403;stroke-linecap:butt;stroke-linejoin:miter;stroke-miterlimit:4;stroke-dasharray:none;stroke-dashoffset:0;stroke-opacity:1;filter:url(#filter4757);color-rendering:auto;image-rendering:auto;shape-rendering:auto;text-rendering:auto;enable-background:accumulate" />
  </g>
  <g
     inkscape:label="subtitle"
     inkscape:groupmode="layer"
     id="layer1"
     style="display:inline;filter:url(#filter5867)"
     transform="translate(-47.646753,-326.44883)"
     sodipodi:insensitive="true">
    <text
       xml:space="preserve"
       style="font-style:normal;font-weight:normal;font-size:10.75025368px;line-height:125%;font-family:sans-serif;letter-spacing:0px;word-spacing:0px;fill:#70ffef;fill-opacity:1;stroke:none;stroke-width:1px;stroke-linecap:butt;stroke-linejoin:miter;stroke-opacity:1;filter:url(#filter4470)"
       x="63.729576"
       y="400.60349"
       id="text4175"
       sodipodi:linespacing="125%"><tspan
         sodipodi:role="line"
         id="tspan4177"
         x="63.729576"
         y="400.60349"
         dx="0"
         style="font-style:normal;font-variant:normal;font-weight:normal;font-stretch:normal;font-size:11.25px;font-family:Sawasdee;-inkscape-font-specification:Sawasdee;letter-spacing:1.27999997px;fill:#70ffef;fill-opacity:1">FIGTHS FOR THE USER</tspan></text>
    <path
       style="font-style:normal;font-weight:normal;font-size:10.75025368px;line-height:125%;font-family:sans-serif;letter-spacing:0px;word-spacing:0px;opacity:0.26800005;fill:#c2ffef;fill-opacity:1;stroke:none;stroke-width:1px;stroke-linecap:butt;stroke-linejoin:miter;stroke-opacity:1;filter:url(#filter7065)"
       d="m 103.98633,390.30469 c -1.9204,-0.67685 -4.068405,3.86209 -3.31445,0.0976 -7.632221,1.81946 -2.133594,2.5705 -9.355474,0 -4.205824,-1.44149 -6.903887,1.95643 -9.044922,0.59375 -2.622442,-1.396 -6.172236,-0.52232 -7.824218,1.95118 0.853131,-4.08751 -11.907071,-3.66666 -11.794922,-0.54493 -2.104376,5.16872 2.293912,15.73131 4.49414,7.20118 1.833723,-5.21763 5.323245,8.9815 7.515625,0.75781 3.900859,5.32309 12.515822,0.59485 11.035157,-5.46485 -3.0836,7.9664 6.535174,11.19168 4.49414,1.70704 -0.07981,-4.65052 1.33104,13.28387 5.146485,4 -0.542037,-6.27467 2.462049,7.12945 5.599609,0.85351 3.606,3.86822 10.37053,-1.82195 6.72656,-5.87695 2.74541,-0.56632 -1.30574,-5.94859 -3.67773,-5.27539 z m 81.62695,0 c -1.92039,-0.67816 -4.06851,3.85666 -3.3164,0.0976 -6.5661,-2.16511 -3.39338,4.54477 -4.96876,7.78125 -1.50491,-2.95545 1.8822,-9.47628 -3.86132,-7.78125 -1.69745,1.42272 -1.48366,6.7706 -0.31836,9.74024 1.63345,3.65987 7.0856,2.82702 8.55273,0.15625 1.30673,2.7654 5.47694,3.20837 7.4336,0.91015 0.81847,2.12204 12.19238,2.86815 11.79492,-0.86328 2.75497,5.14179 8.89537,1.55085 3.56054,-3.0664 2.91881,-3.32779 -1.12548,-8.28035 -5.14453,-6.87696 -3.40381,0.39384 -13.08037,-0.94516 -10.85156,1 -0.7769,-0.70826 -1.82475,-1.13259 -2.88086,-1.09765 z m -59.69336,0.0273 c -1.96922,-0.87811 -5.17965,3.86142 -4.33984,0.0703 -8.42503,-2.16851 -10.09097,2.42206 -8.76953,10 2.88832,7.65603 3.95088,-4.12694 7.36718,-1.96679 1.27219,4.71128 8.28315,5.75601 10.88282,1.63281 2.22638,5.61387 4.12278,-0.80792 8.4707,2.53516 5.59047,0.71931 -2.47449,-4.17682 0.34961,-6.70313 1.47076,-4.47412 -4.23641,-6.80541 -7.82031,-5.49805 -1.58202,1.74133 -0.52272,2.90719 -3.18164,0.63477 -0.9062,-0.47823 -1.93421,-0.72513 -2.95899,-0.70508 z m 17.74219,2.07031 c 3.73507,1.87366 -0.86437,12.08182 6.625,10.20118 0.24854,-10.7704 -0.19239,-5.86123 1.65234,0 6.19363,-0.11413 2.3066,-7.56389 5.33399,0 4.46928,-0.80807 13.33575,2.78106 11.33789,-4.49414 -8.82211,0.85686 3.45229,-0.27712 0.0234,-6.70704 -1.8674,-0.98431 -13.43892,-3.24163 -12.36133,2 -0.10704,-3.97223 -6.8716,-3.03006 -11.61133,-3 -1.83333,-0.83333 -0.66667,1.33334 -1,2 z m -17.52734,2.42188 c 3.73926,0.58377 -0.50749,5.80814 -1.74219,2.01953 -0.2418,-1.04449 0.65975,-2.13116 1.74219,-2.01953 z m 56.17578,1.29297 c 0.42052,0.37263 -0.23294,0.38778 0,0 z m -81.61524,0.0156 c 0.41285,0.4059 -0.2675,0.30764 0,0 z m 94.86719,1.95508 c 2.83051,0.0425 -5.39541,0.006 0,0 z"
       id="text6915"
       inkscape:connector-curvature="0" />
  </g>
  <g
     inkscape:groupmode="layer"
     id="layer5"
     inkscape:label="original"
     style="display:inline"
     sodipodi:insensitive="true"
     transform="translate(-47.646753,-326.44883)">
    <path
       id="path7-6"
       style="color:#000000;font-style:normal;font-variant:normal;font-weight:normal;font-stretch:normal;font-size:medium;line-height:normal;font-family:sans-serif;text-indent:0;text-align:start;text-decoration:none;text-decoration-line:none;text-decoration-style:solid;text-decoration-color:#000000;letter-spacing:normal;word-spacing:normal;text-transform:none;direction:ltr;block-progression:tb;writing-mode:lr-tb;baseline-shift:baseline;text-anchor:start;white-space:normal;clip-rule:nonzero;display:inline;overflow:visible;visibility:visible;opacity:1;isolation:auto;mix-blend-mode:normal;color-interpolation:sRGB;color-interpolation-filters:linearRGB;solid-color:#000000;solid-opacity:1;fill:#166d95;fill-opacity:1;fill-rule:nonzero;stroke:none;stroke-width:2.20349526;stroke-linecap:butt;stroke-linejoin:miter;stroke-miterlimit:4;stroke-dasharray:none;stroke-dashoffset:0;stroke-opacity:1;filter:url(#filter4520);color-rendering:auto;image-rendering:auto;shape-rendering:auto;text-rendering:auto;enable-background:accumulate"
       d="m 85.236183,336.77345 c -12.54807,-3.5e-4 -22.16016,8.9319 -22.16016,20.88086 0,12.00122 9.6022,21.10156 22.16016,21.10156 3.2207,0 5.58053,-0.51762 7.94531,-1.29492 l 1.72656,-0.56836 -6.89648,-6.70899 0,-0.88867 -1.32422,0.27539 c -0.2598,0.054 -0.33906,0.0293 -1.32226,0.0293 -6.27851,0 -11.63477,-5.14402 -11.63477,-11.89648 0,-6.75889 5.27313,-11.77149 11.63477,-11.77149 6.3616,0 11.37695,4.98723 11.37695,11.77149 0,1.10216 -0.13583,2.1588 -0.38867,3.16015 l -0.1543,0.60547 7.833977,7.83399 0.71485,-1.25391 c 1.73674,-3.04374 2.70508,-6.584 2.70508,-10.39453 0,-11.89609 -9.612617,-20.88086 -22.216797,-20.88086 z m 0,2.20508 c 11.5752,0 20.013667,7.95197 20.013667,18.67578 0,2.88895 -0.72951,5.5104 -1.84375,7.90429 l -4.833977,-4.83203 c 0.20111,-0.97898 0.37304,-1.97301 0.37304,-3.02343 0,-7.89173 -6.04808,-13.97461 -13.58007,-13.97461 -7.53197,0 -13.83789,6.05686 -13.83789,13.97461 0,7.92419 6.35143,14.09961 13.83789,14.09961 0.58648,0 0.80332,-0.0303 1.10351,-0.0469 l 4.19922,4.08594 c -1.60701,0.41259 -3.25618,0.71094 -5.43164,0.71094 -11.5106,0 -19.95703,-8.05812 -19.95703,-18.89844 0,-10.78244 8.43588,-18.6761 19.95703,-18.67578 z m -4.80664,15.08984 0,7.53906 7.48047,7.38867 0,-7.77539 7.61133,0 -7.24414,-7.15234 -7.84766,0 z m 2.20312,2.20313 4.74024,0 2.7793,2.74414 -4.44532,0 0,1.10351 0,3.60547 -3.07422,-3.03711 0,-4.41601 z m 5.71289,5.38281 0,7.63086 10.71485,10.73633 7.980467,0 0,-7.36133 -0.33203,-0.32227 -10.916017,-10.68359 -7.44727,0 z m 2.20313,2.20508 4.3457,0 9.943357,9.73047 0,4.22851 -4.863277,0 -9.42578,-9.44531 0,-4.51367 z m 55.170047,-15.59297 -16.62,0 q -1.86,0 -3.24,0.66 -1.32,0.6 -2.64,1.98 -1.26,1.32 -1.92,3 -0.66,1.68 -0.66,3.9 0,1.86 0.66,3.54 0.66,1.68 1.92,3.06 1.32,1.32 2.64,1.98 1.38,0.6 3.24,0.6 l 16.62,0 0,10.74 -1.26,0.9 -15.9,0 q -2.94,0 -6.96,-1.56 -4.02,-1.56 -6.9,-4.38 -2.82,-2.88 -4.5,-6.72 -1.68,-3.84 -1.68,-8.16 0,-4.68 1.68,-8.52 1.68,-3.84 4.5,-6.66 2.88,-2.88 6.9,-4.44 4.02,-1.56 6.96,-1.56 l 15.9,0 1.26,0.9 0,10.74 z m -35.04,9.54 q 0,4.44 1.98,8.4 0.96,1.68 2.22,3.36 1.32,1.68 3.18,3.18 1.92,1.44 4.56,2.52 2.7,1.08 6.24,1.26 l 14.7,0 0,-7.44 -14.34,0 q -3.84,-0.36 -6.06,-2.04 -2.22,-1.68 -3.54,-4.2 -1.08,-2.34 -1.08,-5.04 0,-3.06 1.08,-5.4 1.32,-2.52 3.54,-4.2 2.22,-1.68 6.06,-2.04 l 14.34,0 0,-7.44 -14.7,0 q -3.54,0.18 -6.24,1.26 -2.64,1.08 -4.56,2.58 -1.86,1.44 -3.18,3.12 -1.26,1.68 -2.22,3.36 -1.98,3.96 -1.98,8.76 z m 14.64,-1.08 q 0,0.78 0.24,1.86 0.3,1.02 0.9,2.34 0.66,1.26 1.8,2.58 1.2,1.32 3.48,2.04 2.34,0.66 5.28,0.66 l 8.7,0 -4.08,-9.48 -16.32,0 z m 16.68,7.38 -4.98,0 q -2.64,0 -5.04,-0.9 -2.34,-0.9 -3.54,-4.38 l 11.28,0 2.28,5.28 z m 18.31688,4.56 1.32,-1.44 22.08,0 q 2.88,0 5.7,-2.64 2.82,-2.7 2.82,-6.06 l 11.64,0 q 0,4.32 -1.74,8.04 -1.74,3.66 -4.56,6.36 -2.76,2.64 -6.3,4.2 -3.48,1.5 -7.02,1.5 l -22.62,0 -1.32,-1.44 0,-8.52 z m 33.84,-8.04 q -0.48,2.82 -3.6,5.76 -3.12,2.94 -7.86,2.94 l -20.28,0 0,7.2 19.74,0 q 4.32,0.06 6.78,-0.72 2.52,-0.78 4.68,-2.28 2.16,-1.56 3.72,-3.42 1.56,-1.86 2.52,-3.72 0.96,-1.86 1.38,-3.24 0.42,-1.44 0.42,-2.52 l -7.5,0 z m 9.72,-13.74 -1.32,1.44 -22.08,0 q -2.88,0 -5.7,2.52 -2.82,2.52 -2.82,5.88 l -11.64,0 q 0,-4.32 1.74,-7.98 1.74,-3.72 4.5,-6.36 2.82,-2.7 6.3,-4.2 3.54,-1.56 7.08,-1.56 l 22.62,0 1.32,1.44 0,8.82 z m -33.84,7.74 q 0.48,-2.82 3.6,-5.58 3.12,-2.82 7.86,-2.82 l 20.28,0 0,-7.5 -19.74,0 q -4.32,-0.06 -6.84,0.72 -2.46,0.78 -4.62,2.34 -2.16,1.5 -3.72,3.36 -1.56,1.86 -2.52,3.72 -0.96,1.86 -1.38,3.3 -0.42,1.38 -0.42,2.46 l 7.5,0 z m -23.07938,-16.8 1.2,-1.2 9.78,0 1.2,1.2 0,39.9 -1.2,0.9 -9.78,0 -1.2,-0.9 0,-20.1 0,-19.8 z m 2.1,38.7 7.98,0 0,-37.8 -7.98,0 0,37.8 z"
       inkscape:connector-curvature="0" />
    <path
       sodipodi:type="inkscape:offset"
       inkscape:radius="-0.18940048"
       inkscape:original="M 128.55859 336.62695 C 126.59859 336.62695 124.27961 337.14555 121.59961 338.18555 C 118.91961 339.22555 116.61922 340.70695 114.69922 342.62695 C 112.81922 344.50695 111.31922 346.72711 110.19922 349.28711 C 109.07922 351.84711 108.51953 354.68664 108.51953 357.80664 C 108.51953 360.68664 109.07922 363.4068 110.19922 365.9668 C 111.31922 368.5268 112.81922 370.76555 114.69922 372.68555 C 116.61922 374.56555 118.91961 376.02641 121.59961 377.06641 C 124.27961 378.10641 126.59859 378.62695 128.55859 378.62695 L 144.45898 378.62695 L 145.71875 377.72656 L 145.71875 366.98633 L 129.09961 366.98633 C 127.85961 366.98633 126.77937 366.78672 125.85938 366.38672 C 124.97937 365.94672 124.09875 365.28625 123.21875 364.40625 C 122.37875 363.48625 121.73883 362.4657 121.29883 361.3457 C 120.85883 360.2257 120.63867 359.04664 120.63867 357.80664 C 120.63867 356.32664 120.85883 355.02625 121.29883 353.90625 C 121.73883 352.78625 122.37875 351.78625 123.21875 350.90625 C 124.09875 349.98625 124.97937 349.32578 125.85938 348.92578 C 126.77937 348.48578 127.85961 348.26562 129.09961 348.26562 L 145.71875 348.26562 L 145.71875 337.52734 L 144.45898 336.62695 L 128.55859 336.62695 z M 148.15625 336.62695 L 146.95703 337.82617 L 146.95703 357.62695 L 146.95703 377.72656 L 148.15625 378.62695 L 157.93555 378.62695 L 159.13672 377.72656 L 159.13672 337.82617 L 157.93555 336.62695 L 148.15625 336.62695 z M 179.93555 336.62695 C 177.57555 336.62695 175.21547 337.14555 172.85547 338.18555 C 170.53547 339.18555 168.43469 340.58672 166.55469 342.38672 C 164.71469 344.14672 163.21469 346.26609 162.05469 348.74609 C 160.89469 351.18609 160.31641 353.84656 160.31641 356.72656 L 171.95508 356.72656 C 171.95508 354.48656 172.89539 352.5257 174.77539 350.8457 C 176.65539 349.1657 178.55656 348.32617 180.47656 348.32617 L 202.55469 348.32617 L 203.875 346.88672 L 203.875 338.06641 L 202.55469 336.62695 L 179.93555 336.62695 z M 85.236328 336.77344 C 72.688258 336.77309 63.076172 345.70534 63.076172 357.6543 C 63.076172 369.65552 72.678368 378.75586 85.236328 378.75586 C 88.457028 378.75586 90.816861 378.23824 93.181641 377.46094 L 94.908203 376.89258 L 88.011719 370.18359 L 88.011719 369.29492 L 86.6875 369.57031 C 86.4277 369.62431 86.348434 369.59961 85.365234 369.59961 C 79.086724 369.59961 73.730469 364.45559 73.730469 357.70312 C 73.730469 350.94423 79.003594 345.93164 85.365234 345.93164 C 91.726834 345.93164 96.742188 350.91887 96.742188 357.70312 C 96.742188 358.80529 96.606356 359.86193 96.353516 360.86328 L 96.199219 361.46875 L 104.0332 369.30273 L 104.74805 368.04883 C 106.48479 365.00509 107.45313 361.46483 107.45312 357.6543 C 107.45312 345.75821 97.840508 336.77344 85.236328 336.77344 z M 128.85938 338.72656 L 143.55859 338.72656 L 143.55859 346.16602 L 129.21875 346.16602 C 126.65875 346.40602 124.6382 347.08703 123.1582 348.20703 C 121.6782 349.32703 120.49914 350.72625 119.61914 352.40625 C 118.89914 353.96625 118.53906 355.76664 118.53906 357.80664 C 118.53906 359.60664 118.89914 361.2857 119.61914 362.8457 C 120.49914 364.5257 121.6782 365.92687 123.1582 367.04688 C 124.6382 368.16687 126.65875 368.84594 129.21875 369.08594 L 143.55859 369.08594 L 143.55859 376.52734 L 128.85938 376.52734 C 126.49937 376.40734 124.41914 375.98563 122.61914 375.26562 C 120.85914 374.54562 119.33859 373.70609 118.05859 372.74609 C 116.81859 371.74609 115.75891 370.68641 114.87891 369.56641 C 114.03891 368.44641 113.2982 367.32703 112.6582 366.20703 C 111.3382 363.56703 110.67969 360.76664 110.67969 357.80664 C 110.67969 354.60664 111.3382 351.68687 112.6582 349.04688 C 113.2982 347.92688 114.03891 346.80555 114.87891 345.68555 C 115.75891 344.56555 116.81859 343.52641 118.05859 342.56641 C 119.33859 341.56641 120.85914 340.70633 122.61914 339.98633 C 124.41914 339.26633 126.49938 338.84656 128.85938 338.72656 z M 149.05664 338.72656 L 157.03711 338.72656 L 157.03711 376.52734 L 149.05664 376.52734 L 149.05664 338.72656 z M 182.03516 338.72656 L 201.77539 338.72656 L 201.77539 346.22656 L 181.49609 346.22656 C 178.33609 346.22656 175.71477 347.16687 173.63477 349.04688 C 171.55477 350.88687 170.35516 352.74695 170.03516 354.62695 L 162.53516 354.62695 C 162.53516 353.90695 162.67508 353.08602 162.95508 352.16602 C 163.23508 351.20602 163.69594 350.10719 164.33594 348.86719 C 164.97594 347.62719 165.81547 346.38648 166.85547 345.14648 C 167.89547 343.90648 169.13617 342.78711 170.57617 341.78711 C 172.01617 340.74711 173.55531 339.96727 175.19531 339.44727 C 176.87531 338.92727 179.15516 338.68656 182.03516 338.72656 z M 85.236328 338.97852 C 96.811528 338.97852 105.25 346.93049 105.25 357.6543 C 105.25 360.54325 104.52049 363.1647 103.40625 365.55859 L 98.572266 360.72656 C 98.773376 359.74758 98.945312 358.75355 98.945312 357.70312 C 98.945312 349.8114 92.897224 343.72852 85.365234 343.72852 C 77.833264 343.72852 71.527344 349.78537 71.527344 357.70312 C 71.527344 365.62732 77.878774 371.80273 85.365234 371.80273 C 85.951714 371.80273 86.16856 371.77246 86.46875 371.75586 L 90.667969 375.8418 C 89.060959 376.25439 87.411788 376.55273 85.236328 376.55273 C 73.725728 376.55273 65.279297 368.49462 65.279297 357.6543 C 65.279297 346.87186 73.715178 338.9782 85.236328 338.97852 z M 80.429688 354.06836 L 80.429688 361.60742 L 87.910156 368.99609 L 87.910156 361.2207 L 95.521484 361.2207 L 88.277344 354.06836 L 80.429688 354.06836 z M 82.632812 356.27148 L 87.373047 356.27148 L 90.152344 359.01562 L 85.707031 359.01562 L 85.707031 360.11914 L 85.707031 363.72461 L 82.632812 360.6875 L 82.632812 356.27148 z M 125.31836 356.72656 C 125.31836 357.24656 125.39859 357.86594 125.55859 358.58594 C 125.75859 359.26594 126.05898 360.04578 126.45898 360.92578 C 126.89898 361.76578 127.49781 362.62586 128.25781 363.50586 C 129.05781 364.38586 130.21828 365.06688 131.73828 365.54688 C 133.29828 365.98687 135.05953 366.20703 137.01953 366.20703 L 145.71875 366.20703 L 141.63867 356.72656 L 125.31836 356.72656 z M 192.23633 358.52734 C 192.23633 360.76734 191.29602 362.78594 189.41602 364.58594 C 187.53602 366.34594 185.63484 367.22656 183.71484 367.22656 L 161.63477 367.22656 L 160.31641 368.66602 L 160.31641 377.18555 L 161.63477 378.62695 L 184.25586 378.62695 C 186.61586 378.62695 188.95539 378.12695 191.27539 377.12695 C 193.63539 376.08695 195.73617 374.68578 197.57617 372.92578 C 199.45617 371.12578 200.97477 369.00641 202.13477 366.56641 C 203.29477 364.08641 203.875 361.40734 203.875 358.52734 L 192.23633 358.52734 z M 128.43945 358.82617 L 139.71875 358.82617 L 141.99805 364.10547 L 137.01953 364.10547 C 135.25953 364.10547 133.57852 363.80703 131.97852 363.20703 C 130.41852 362.60703 129.23945 361.14617 128.43945 358.82617 z M 194.15625 360.62695 L 201.65625 360.62695 C 201.65625 361.34695 201.51633 362.18648 201.23633 363.14648 C 200.95633 364.06648 200.49547 365.14672 199.85547 366.38672 C 199.21547 367.62672 198.37594 368.86547 197.33594 370.10547 C 196.29594 371.34547 195.05523 372.48734 193.61523 373.52734 C 192.17523 374.52734 190.61555 375.28664 188.93555 375.80664 C 187.29555 376.32664 185.03625 376.56734 182.15625 376.52734 L 162.41602 376.52734 L 162.41602 369.32617 L 182.69531 369.32617 C 185.85531 369.32617 188.47469 368.34672 190.55469 366.38672 C 192.63469 364.42672 193.83625 362.50695 194.15625 360.62695 z M 88.345703 361.6543 L 88.345703 369.28516 L 99.060547 380.02148 L 107.04102 380.02148 L 107.04102 372.66016 L 106.70898 372.33789 L 95.792969 361.6543 L 88.345703 361.6543 z M 90.548828 363.85938 L 94.894531 363.85938 L 104.83789 373.58984 L 104.83789 377.81836 L 99.974609 377.81836 L 90.548828 368.37305 L 90.548828 363.85938 z "
       style="color:#000000;font-style:normal;font-variant:normal;font-weight:normal;font-stretch:normal;font-size:medium;line-height:normal;font-family:sans-serif;text-indent:0;text-align:start;text-decoration:none;text-decoration-line:none;text-decoration-style:solid;text-decoration-color:#000000;letter-spacing:normal;word-spacing:normal;text-transform:none;direction:ltr;block-progression:tb;writing-mode:lr-tb;baseline-shift:baseline;text-anchor:start;white-space:normal;clip-rule:nonzero;display:inline;overflow:visible;visibility:visible;opacity:1;isolation:auto;mix-blend-mode:normal;color-interpolation:sRGB;color-interpolation-filters:linearRGB;solid-color:#000000;solid-opacity:1;fill:#41d9fa;fill-opacity:1;fill-rule:nonzero;stroke:none;stroke-width:2.20349526;stroke-linecap:butt;stroke-linejoin:miter;stroke-miterlimit:4;stroke-dasharray:none;stroke-dashoffset:0;stroke-opacity:1;filter:url(#filter4434);color-rendering:auto;image-rendering:auto;shape-rendering:auto;text-rendering:auto;enable-background:accumulate"
       id="path4428"
       d="m 128.55859,336.81641 c -1.92659,0 -4.22518,0.51057 -6.89062,1.54492 -2.65753,1.03128 -4.93303,2.49943 -6.83399,4.40039 -1.86289,1.8629 -3.34971,4.06161 -4.46093,6.60156 -1.10868,2.53411 -1.66407,5.34601 -1.66407,8.44336 0,2.85546 0.55453,5.54789 1.66407,8.08398 1.11097,2.53938 2.59614,4.75721 4.45898,6.66016 3.5e-4,3.4e-4 0.002,-3.4e-4 0.002,0 3.5e-4,3.5e-4 -3.4e-4,0.002 0,0.002 1.90062,1.86048 4.1766,3.30667 6.83399,4.33789 2.66552,1.03439 4.96416,1.54688 6.89062,1.54688 l 15.83985,0 1.13086,-0.80859 0,-10.45313 -16.42969,0 c -1.26033,0 -2.36783,-0.2028 -3.31641,-0.61523 a 0.18941942,0.18941942 0 0 1 -0.008,-0.004 c -0.90261,-0.4513 -1.80024,-1.12446 -2.69141,-2.01562 a 0.18941942,0.18941942 0 0 1 -0.006,-0.008 c -0.85473,-0.93613 -1.50654,-1.97741 -1.95507,-3.11914 -0.44868,-1.14209 -0.67383,-2.345 -0.67383,-3.60742 0,-1.49878 0.22345,-2.82232 0.67383,-3.96875 0.44882,-1.14246 1.10267,-2.16541 1.95898,-3.0625 0.89233,-0.93289 1.79104,-1.60868 2.69922,-2.02148 0.94901,-0.45305 2.05766,-0.67774 3.31836,-0.67774 l 16.42969,0 0,-10.45117 -1.13086,-0.80859 -15.83985,0 z m 19.67774,0 -1.08985,1.08789 0,19.72265 0,20.00586 1.07227,0.80469 9.6543,0 1.07422,-0.80664 0,-39.72656 -1.08985,-1.08789 -9.62109,0 z m 31.69922,0 c -2.33226,0 -4.66529,0.51239 -7.00391,1.54297 a 0.18941942,0.18941942 0 0 1 -0.002,0 c -2.29911,0.99099 -4.37959,2.37885 -6.24414,4.16406 -1.82227,1.74304 -3.30799,3.84198 -4.45899,6.30273 a 0.18941942,0.18941942 0 0 1 0,0.002 c -1.12167,2.35938 -1.68569,4.92861 -1.71094,7.70899 l 11.27149,0 c 0.0536,-2.21282 1.00442,-4.17267 2.86133,-5.83203 1.90393,-1.70139 3.85291,-2.56836 5.82812,-2.56836 l 21.99414,0 1.21485,-1.32422 0,-8.67188 -1.21485,-1.32421 -22.53515,0 z m -94.699222,0.14648 c -12.458185,-3.5e-4 -21.970703,8.84402 -21.970703,20.69141 0,11.90019 9.504245,20.91211 21.970703,20.91211 3.200407,0 5.533752,-0.51174 7.886719,-1.28516 l 1.427734,-0.4707 -6.671875,-6.49024 a 0.18941942,0.18941942 0 0 1 -0.05664,-0.13672 l 0,-0.65625 -1.095704,0.22852 c -0.13929,0.029 -0.247464,0.0385 -0.427734,0.0391 -0.18027,5.9e-4 -0.44358,-0.006 -0.933594,-0.006 -6.381961,0 -11.824218,-5.23331 -11.824218,-12.08594 0,-6.8574 5.363088,-11.96093 11.824218,-11.96093 6.460588,0 11.566407,5.08334 11.566407,11.96093 0,1.11774 -0.137891,2.19063 -0.394532,3.20704 l -0.126953,0.5 7.582034,7.58203 0.59179,-1.03711 c 1.72043,-3.01515 2.6797,-6.52234 2.67969,-10.30078 0,-11.79406 -9.51317,-20.69141 -22.027342,-20.69141 z m 43.613282,1.57422 a 0.18941942,0.18941942 0 0 1 0.01,0 l 14.69921,0 a 0.18941942,0.18941942 0 0 1 0.18946,0.18945 l 0,7.43946 a 0.18941942,0.18941942 0 0 1 -0.18946,0.18945 l -14.32226,0 c -2.53607,0.23776 -4.51958,0.90971 -5.96289,2.00195 -1.45578,1.10167 -2.61508,2.47571 -3.48242,4.12891 -6e-4,0.001 -0.001,0.003 -0.002,0.004 -6.8e-4,0.001 -0.001,0.003 -0.002,0.004 -0.70444,1.52969 -1.05859,3.29821 -1.05859,5.3125 0,1.77168 0.35263,3.41856 1.05859,4.95117 6.8e-4,0.001 0.001,0.003 0.002,0.004 6.1e-4,0.001 0.001,0.003 0.002,0.004 0.86737,1.65326 2.02673,3.02925 3.48242,4.13086 1.44323,1.09217 3.42672,1.76224 5.96289,2 l 14.32226,0 a 0.18941942,0.18941942 0 0 1 0.18946,0.18946 l 0,7.4414 a 0.18941942,0.18941942 0 0 1 -0.18946,0.18946 l -14.69921,0 a 0.18941942,0.18941942 0 0 1 -0.01,0 c -2.37685,-0.12086 -4.47774,-0.54617 -6.30078,-1.27539 a 0.18941942,0.18941942 0 0 1 -0.002,0 c -1.77238,-0.72506 -3.30637,-1.57158 -4.60157,-2.54297 a 0.18941942,0.18941942 0 0 1 -0.006,-0.006 c -1.24985,-1.00795 -2.3192,-2.07654 -3.20898,-3.20899 a 0.18941942,0.18941942 0 0 1 -0.004,-0.004 c -0.84428,-1.12571 -1.58816,-2.25145 -2.23242,-3.37891 a 0.18941942,0.18941942 0 0 1 -0.006,-0.01 c -1.33269,-2.66539 -1.99805,-5.49629 -1.99805,-8.48438 0,-3.22598 0.66434,-6.17633 1.99805,-8.84375 a 0.18941942,0.18941942 0 0 1 0.006,-0.01 c 0.64422,-1.12737 1.38808,-2.25507 2.23242,-3.38085 a 0.18941942,0.18941942 0 0 1 0.004,-0.004 c 0.88994,-1.13266 1.96088,-2.18235 3.21094,-3.15039 l 0.002,-0.002 c 1.29538,-1.01166 2.83094,-1.88033 4.60352,-2.60547 a 0.18941942,0.18941942 0 0 1 0.002,0 c 1.82315,-0.72926 3.92404,-1.15259 6.30078,-1.27344 z m 20.19336,0 a 0.18941942,0.18941942 0 0 1 0.0137,0 l 7.98047,0 a 0.18941942,0.18941942 0 0 1 0.18945,0.18945 l 0,37.80078 a 0.18941942,0.18941942 0 0 1 -0.18945,0.18946 l -7.98047,0 a 0.18941942,0.18941942 0 0 1 -0.18945,-0.18946 l 0,-37.80078 a 0.18941942,0.18941942 0 0 1 0.17578,-0.18945 z m 32.99219,0 0.002,0 19.73828,0 a 0.18941942,0.18941942 0 0 1 0.18945,0.18945 l 0,7.5 a 0.18941942,0.18941942 0 0 1 -0.18945,0.18946 l -20.2793,0 c -3.12242,0 -5.68979,0.92348 -7.73437,2.77148 a 0.18941942,0.18941942 0 0 1 -0.002,0.002 c -2.05963,1.82197 -3.22678,3.64557 -3.53711,5.46875 a 0.18941942,0.18941942 0 0 1 -0.1875,0.15821 l -7.5,0 a 0.18941942,0.18941942 0 0 1 -0.18946,-0.18946 c 0,-0.74402 0.14411,-1.58124 0.42774,-2.51367 l 0,-0.002 c 0.2848,-0.97594 0.75097,-2.08318 1.39453,-3.33008 0.64734,-1.25423 1.49524,-2.50665 2.54297,-3.75586 1.05072,-1.25279 2.30291,-2.38451 3.7539,-3.39258 l 0.004,-0.002 c 1.45448,-1.04992 3.01181,-1.83754 4.66992,-2.36328 a 0.18941942,0.18941942 0 0 1 0,-0.002 c 1.71006,-0.5293 4.00552,-0.76853 6.89649,-0.72851 z m -96.798832,0.25195 c 11.661943,0 20.203122,8.04207 20.203122,18.86524 0,2.92083 -0.73811,5.5712 -1.86133,7.98437 a 0.18941942,0.18941942 0 0 1 -0.30664,0.0547 l -4.83398,-4.83203 a 0.18941942,0.18941942 0 0 1 -0.05078,-0.17383 c 0.200306,-0.97507 0.36914,-1.95461 0.36914,-2.98438 0,-7.79495 -5.960609,-13.78515 -13.390625,-13.78515 -7.430432,0 -13.648437,5.96797 -13.648437,13.78515 0,7.823 6.266132,13.91016 13.648437,13.91016 0.579963,0 0.785907,-0.0298 1.09375,-0.0469 a 0.18941942,0.18941942 0 0 1 0.142578,0.0527 l 4.199219,4.08789 a 0.18941942,0.18941942 0 0 1 -0.08594,0.31836 c -1.61594,0.41488 -3.28574,0.7168 -5.478516,0.7168 -11.598994,0 -20.146484,-8.14919 -20.146484,-19.08789 0,-10.88123 8.53882,-18.86556 20.146484,-18.86524 z m -4.617187,15.46875 0,7.26953 7.101562,7.01563 0,-7.32227 a 0.18941942,0.18941942 0 0 1 0.189453,-0.18945 l 7.150391,0 -6.861328,-6.77344 -7.580078,0 z m 2,1.82422 a 0.18941942,0.18941942 0 0 1 0.01367,0 l 4.740235,0 a 0.18941942,0.18941942 0 0 1 0.132812,0.0547 l 2.779297,2.74414 a 0.18941942,0.18941942 0 0 1 -0.132812,0.32422 l -4.25586,0 0,0.91406 0,3.60547 a 0.18941942,0.18941942 0 0 1 -0.322265,0.13477 L 82.5,360.82227 a 0.18941942,0.18941942 0 0 1 -0.05664,-0.13477 l 0,-4.41602 a 0.18941942,0.18941942 0 0 1 0.175782,-0.18945 z m 42.902339,0.83399 c 0.0157,0.46391 0.0833,0.99718 0.22266,1.625 3e-4,0.001 -3e-4,0.003 0,0.004 0.19576,0.66322 0.48998,1.42774 0.88281,2.29297 0.43132,0.82343 1.02063,1.67117 1.77149,2.54102 0.77033,0.84736 1.89635,1.5136 3.39062,1.98632 5.9e-4,1.7e-4 0.001,-1.6e-4 0.002,0 0.001,4.6e-4 0.002,0.002 0.004,0.002 1.53866,0.4333 3.28117,0.65039 5.22461,0.65039 l 8.41211,0 -3.91797,-9.10156 -15.99219,0 z m 2.91797,1.7207 11.2793,0 a 0.18941942,0.18941942 0 0 1 0.17383,0.11523 l 2.2793,5.2793 a 0.18941942,0.18941942 0 0 1 -0.17383,0.26367 l -4.97852,0 c -1.78141,0 -3.48592,-0.30209 -5.10742,-0.91015 a 0.18941942,0.18941942 0 0 1 -0.002,0 c -1.6263,-0.6255 -2.83969,-2.14504 -3.65039,-4.4961 a 0.18941942,0.18941942 0 0 1 0.17968,-0.25195 z m 63.96485,0.0801 c -0.0533,2.21626 -1.00302,4.23036 -2.85742,6.00586 a 0.18941942,0.18941942 0 0 1 -0.002,0.002 c -1.90349,1.782 -3.85216,2.69141 -5.83008,2.69141 l -21.99609,0 -1.21289,1.32421 0,8.3711 1.21289,1.32617 22.53711,0 c 2.33267,0 4.64535,-0.4941 6.94336,-1.48438 2.34051,-1.03141 4.42184,-2.41912 6.24609,-4.16406 1.86276,-1.78349 3.36694,-3.88288 4.51758,-6.30273 l 0,-0.002 c 1.12173,-2.39881 1.68762,-4.98695 1.71289,-7.76758 l -11.27148,0 z m 1.75195,1.7207 7.5,0 a 0.18941942,0.18941942 0 0 1 0.18945,0.18945 c 0,0.74454 -0.14417,1.60006 -0.42773,2.57227 a 0.18941942,0.18941942 0 0 1 0,0.002 c -0.28483,0.93588 -0.75097,2.02458 -1.39453,3.27149 -0.64738,1.2543 -1.49531,2.50477 -2.54297,3.7539 -1.05087,1.25296 -2.30242,2.40679 -3.75391,3.45508 a 0.18941942,0.18941942 0 0 1 -0.004,0.002 c -1.45574,1.01093 -3.03235,1.77908 -4.73047,2.30469 l 0,-0.002 c -1.67172,0.53006 -3.94597,0.77063 -6.83789,0.73047 l -19.73828,0 a 0.18941942,0.18941942 0 0 1 -0.18946,-0.18946 l 0,-7.20117 a 0.18941942,0.18941942 0 0 1 0.18946,-0.18945 l 20.27929,0 c 3.12087,0 5.68336,-0.9615 7.72852,-2.88867 2.06157,-1.94264 3.2345,-3.82864 3.54492,-5.65235 a 0.18941942,0.18941942 0 0 1 0.1875,-0.1582 z m -105.621094,1.40625 0,7.36328 10.603516,10.625 7.712888,0 0,-7.0918 -0.27539,-0.26562 a 0.18941942,0.18941942 0 0 1 0,-0.002 l -10.861326,-10.62891 -7.179688,0 z m 2,1.82617 a 0.18941942,0.18941942 0 0 1 0.01367,0 l 4.345703,0 a 0.18941942,0.18941942 0 0 1 0.132813,0.0547 l 9.943356,9.73047 a 0.18941942,0.18941942 0 0 1 0.0566,0.13476 l 0,4.22852 a 0.18941942,0.18941942 0 0 1 -0.18945,0.18945 l -4.863281,0 a 0.18941942,0.18941942 0 0 1 -0.134765,-0.0566 l -9.425782,-9.44336 a 0.18941942,0.18941942 0 0 1 -0.05469,-0.13476 l 0,-4.51367 a 0.18941942,0.18941942 0 0 1 0.175781,-0.18946 z" />
    <path
       sodipodi:type="inkscape:offset"
       inkscape:radius="-0.65941292"
       inkscape:original="M 128.55859 336.62695 C 126.59859 336.62695 124.27961 337.14555 121.59961 338.18555 C 118.91961 339.22555 116.61922 340.70695 114.69922 342.62695 C 112.81922 344.50695 111.31922 346.72711 110.19922 349.28711 C 109.07922 351.84711 108.51953 354.68664 108.51953 357.80664 C 108.51953 360.68664 109.07922 363.4068 110.19922 365.9668 C 111.31922 368.5268 112.81922 370.76555 114.69922 372.68555 C 116.61922 374.56555 118.91961 376.02641 121.59961 377.06641 C 124.27961 378.10641 126.59859 378.62695 128.55859 378.62695 L 144.45898 378.62695 L 145.71875 377.72656 L 145.71875 366.98633 L 129.09961 366.98633 C 127.85961 366.98633 126.77937 366.78672 125.85938 366.38672 C 124.97937 365.94672 124.09875 365.28625 123.21875 364.40625 C 122.37875 363.48625 121.73883 362.4657 121.29883 361.3457 C 120.85883 360.2257 120.63867 359.04664 120.63867 357.80664 C 120.63867 356.32664 120.85883 355.02625 121.29883 353.90625 C 121.73883 352.78625 122.37875 351.78625 123.21875 350.90625 C 124.09875 349.98625 124.97937 349.32578 125.85938 348.92578 C 126.77937 348.48578 127.85961 348.26562 129.09961 348.26562 L 145.71875 348.26562 L 145.71875 337.52734 L 144.45898 336.62695 L 128.55859 336.62695 z M 148.15625 336.62695 L 146.95703 337.82617 L 146.95703 357.62695 L 146.95703 377.72656 L 148.15625 378.62695 L 157.93555 378.62695 L 159.13672 377.72656 L 159.13672 337.82617 L 157.93555 336.62695 L 148.15625 336.62695 z M 179.93555 336.62695 C 177.57555 336.62695 175.21547 337.14555 172.85547 338.18555 C 170.53547 339.18555 168.43469 340.58672 166.55469 342.38672 C 164.71469 344.14672 163.21469 346.26609 162.05469 348.74609 C 160.89469 351.18609 160.31641 353.84656 160.31641 356.72656 L 171.95508 356.72656 C 171.95508 354.48656 172.89539 352.5257 174.77539 350.8457 C 176.65539 349.1657 178.55656 348.32617 180.47656 348.32617 L 202.55469 348.32617 L 203.875 346.88672 L 203.875 338.06641 L 202.55469 336.62695 L 179.93555 336.62695 z M 85.236328 336.77344 C 72.688258 336.77309 63.076172 345.70534 63.076172 357.6543 C 63.076172 369.65552 72.678368 378.75586 85.236328 378.75586 C 88.457028 378.75586 90.816861 378.23824 93.181641 377.46094 L 94.908203 376.89258 L 88.011719 370.18359 L 88.011719 369.29492 L 86.6875 369.57031 C 86.4277 369.62431 86.348434 369.59961 85.365234 369.59961 C 79.086724 369.59961 73.730469 364.45559 73.730469 357.70312 C 73.730469 350.94423 79.003594 345.93164 85.365234 345.93164 C 91.726834 345.93164 96.742188 350.91887 96.742188 357.70312 C 96.742188 358.80529 96.606356 359.86193 96.353516 360.86328 L 96.199219 361.46875 L 104.0332 369.30273 L 104.74805 368.04883 C 106.48479 365.00509 107.45313 361.46483 107.45312 357.6543 C 107.45312 345.75821 97.840508 336.77344 85.236328 336.77344 z M 128.85938 338.72656 L 143.55859 338.72656 L 143.55859 346.16602 L 129.21875 346.16602 C 126.65875 346.40602 124.6382 347.08703 123.1582 348.20703 C 121.6782 349.32703 120.49914 350.72625 119.61914 352.40625 C 118.89914 353.96625 118.53906 355.76664 118.53906 357.80664 C 118.53906 359.60664 118.89914 361.2857 119.61914 362.8457 C 120.49914 364.5257 121.6782 365.92687 123.1582 367.04688 C 124.6382 368.16687 126.65875 368.84594 129.21875 369.08594 L 143.55859 369.08594 L 143.55859 376.52734 L 128.85938 376.52734 C 126.49937 376.40734 124.41914 375.98563 122.61914 375.26562 C 120.85914 374.54562 119.33859 373.70609 118.05859 372.74609 C 116.81859 371.74609 115.75891 370.68641 114.87891 369.56641 C 114.03891 368.44641 113.2982 367.32703 112.6582 366.20703 C 111.3382 363.56703 110.67969 360.76664 110.67969 357.80664 C 110.67969 354.60664 111.3382 351.68687 112.6582 349.04688 C 113.2982 347.92688 114.03891 346.80555 114.87891 345.68555 C 115.75891 344.56555 116.81859 343.52641 118.05859 342.56641 C 119.33859 341.56641 120.85914 340.70633 122.61914 339.98633 C 124.41914 339.26633 126.49938 338.84656 128.85938 338.72656 z M 149.05664 338.72656 L 157.03711 338.72656 L 157.03711 376.52734 L 149.05664 376.52734 L 149.05664 338.72656 z M 182.03516 338.72656 L 201.77539 338.72656 L 201.77539 346.22656 L 181.49609 346.22656 C 178.33609 346.22656 175.71477 347.16687 173.63477 349.04688 C 171.55477 350.88687 170.35516 352.74695 170.03516 354.62695 L 162.53516 354.62695 C 162.53516 353.90695 162.67508 353.08602 162.95508 352.16602 C 163.23508 351.20602 163.69594 350.10719 164.33594 348.86719 C 164.97594 347.62719 165.81547 346.38648 166.85547 345.14648 C 167.89547 343.90648 169.13617 342.78711 170.57617 341.78711 C 172.01617 340.74711 173.55531 339.96727 175.19531 339.44727 C 176.87531 338.92727 179.15516 338.68656 182.03516 338.72656 z M 85.236328 338.97852 C 96.811528 338.97852 105.25 346.93049 105.25 357.6543 C 105.25 360.54325 104.52049 363.1647 103.40625 365.55859 L 98.572266 360.72656 C 98.773376 359.74758 98.945312 358.75355 98.945312 357.70312 C 98.945312 349.8114 92.897224 343.72852 85.365234 343.72852 C 77.833264 343.72852 71.527344 349.78537 71.527344 357.70312 C 71.527344 365.62732 77.878774 371.80273 85.365234 371.80273 C 85.951714 371.80273 86.16856 371.77246 86.46875 371.75586 L 90.667969 375.8418 C 89.060959 376.25439 87.411788 376.55273 85.236328 376.55273 C 73.725728 376.55273 65.279297 368.49462 65.279297 357.6543 C 65.279297 346.87186 73.715178 338.9782 85.236328 338.97852 z M 80.429688 354.06836 L 80.429688 361.60742 L 87.910156 368.99609 L 87.910156 361.2207 L 95.521484 361.2207 L 88.277344 354.06836 L 80.429688 354.06836 z M 82.632812 356.27148 L 87.373047 356.27148 L 90.152344 359.01562 L 85.707031 359.01562 L 85.707031 360.11914 L 85.707031 363.72461 L 82.632812 360.6875 L 82.632812 356.27148 z M 125.31836 356.72656 C 125.31836 357.24656 125.39859 357.86594 125.55859 358.58594 C 125.75859 359.26594 126.05898 360.04578 126.45898 360.92578 C 126.89898 361.76578 127.49781 362.62586 128.25781 363.50586 C 129.05781 364.38586 130.21828 365.06688 131.73828 365.54688 C 133.29828 365.98687 135.05953 366.20703 137.01953 366.20703 L 145.71875 366.20703 L 141.63867 356.72656 L 125.31836 356.72656 z M 192.23633 358.52734 C 192.23633 360.76734 191.29602 362.78594 189.41602 364.58594 C 187.53602 366.34594 185.63484 367.22656 183.71484 367.22656 L 161.63477 367.22656 L 160.31641 368.66602 L 160.31641 377.18555 L 161.63477 378.62695 L 184.25586 378.62695 C 186.61586 378.62695 188.95539 378.12695 191.27539 377.12695 C 193.63539 376.08695 195.73617 374.68578 197.57617 372.92578 C 199.45617 371.12578 200.97477 369.00641 202.13477 366.56641 C 203.29477 364.08641 203.875 361.40734 203.875 358.52734 L 192.23633 358.52734 z M 128.43945 358.82617 L 139.71875 358.82617 L 141.99805 364.10547 L 137.01953 364.10547 C 135.25953 364.10547 133.57852 363.80703 131.97852 363.20703 C 130.41852 362.60703 129.23945 361.14617 128.43945 358.82617 z M 194.15625 360.62695 L 201.65625 360.62695 C 201.65625 361.34695 201.51633 362.18648 201.23633 363.14648 C 200.95633 364.06648 200.49547 365.14672 199.85547 366.38672 C 199.21547 367.62672 198.37594 368.86547 197.33594 370.10547 C 196.29594 371.34547 195.05523 372.48734 193.61523 373.52734 C 192.17523 374.52734 190.61555 375.28664 188.93555 375.80664 C 187.29555 376.32664 185.03625 376.56734 182.15625 376.52734 L 162.41602 376.52734 L 162.41602 369.32617 L 182.69531 369.32617 C 185.85531 369.32617 188.47469 368.34672 190.55469 366.38672 C 192.63469 364.42672 193.83625 362.50695 194.15625 360.62695 z M 88.345703 361.6543 L 88.345703 369.28516 L 99.060547 380.02148 L 107.04102 380.02148 L 107.04102 372.66016 L 106.70898 372.33789 L 95.792969 361.6543 L 88.345703 361.6543 z M 90.548828 363.85938 L 94.894531 363.85938 L 104.83789 373.58984 L 104.83789 377.81836 L 99.974609 377.81836 L 90.548828 368.37305 L 90.548828 363.85938 z "
       style="color:#000000;font-style:normal;font-variant:normal;font-weight:normal;font-stretch:normal;font-size:medium;line-height:normal;font-family:sans-serif;text-indent:0;text-align:start;text-decoration:none;text-decoration-line:none;text-decoration-style:solid;text-decoration-color:#000000;letter-spacing:normal;word-spacing:normal;text-transform:none;direction:ltr;block-progression:tb;writing-mode:lr-tb;baseline-shift:baseline;text-anchor:start;white-space:normal;clip-rule:nonzero;display:inline;overflow:visible;visibility:visible;opacity:1;isolation:auto;mix-blend-mode:normal;color-interpolation:sRGB;color-interpolation-filters:linearRGB;solid-color:#000000;solid-opacity:1;fill:#ffffff;fill-opacity:1;fill-rule:nonzero;stroke:none;stroke-width:2.20349526;stroke-linecap:butt;stroke-linejoin:miter;stroke-miterlimit:4;stroke-dasharray:none;stroke-dashoffset:0;stroke-opacity:1;filter:url(#filter4460);color-rendering:auto;image-rendering:auto;shape-rendering:auto;text-rendering:auto;enable-background:accumulate"
       id="path4442"
       d="m 128.55859,337.28711 c -1.84368,0 -4.09138,0.49334 -6.7207,1.51367 -2.60176,1.00964 -4.81817,2.43927 -6.67187,4.29297 -1.82047,1.82046 -3.27383,3.96684 -4.36329,6.45703 -1.08056,2.46986 -1.62304,5.21472 -1.62304,8.25586 0,2.79457 0.53946,5.41973 1.62304,7.89648 1.08895,2.48903 2.54219,4.65456 4.36329,6.51563 1.85287,1.8129 4.06973,3.22264 6.67187,4.23242 2.62958,1.02044 4.87746,1.51563 6.7207,1.51563 l 15.68946,0 0.81054,-0.58008 0,-9.74024 -15.95898,0 c -1.31077,0 -2.48439,-0.21102 -3.50391,-0.65429 a 0.65947886,0.65947886 0 0 1 -0.0312,-0.0156 c -0.95871,-0.47935 -1.89361,-1.18463 -2.8125,-2.10351 a 0.65947886,0.65947886 0 0 1 -0.0195,-0.0215 c -0.89129,-0.97617 -1.57716,-2.06999 -2.04687,-3.26562 -0.47022,-1.19692 -0.70703,-2.46125 -0.70703,-3.7793 0,-1.54539 0.23088,-2.92862 0.70703,-4.14062 0.47071,-1.1982 1.15985,-2.27536 2.05664,-3.21485 0.92292,-0.96487 1.86567,-1.68042 2.84375,-2.125 1.02149,-0.4862 2.2003,-0.7207 3.51367,-0.7207 l 15.95898,0 0,-9.73828 -0.81054,-0.58008 -15.68946,0 z m 19.8711,0 -0.8125,0.8125 0,19.52734 0,19.76953 0.75976,0.57032 9.33985,0 0.75976,-0.57032 0,-39.29687 -0.81445,-0.8125 -9.23242,0 z m 31.50586,0 c -2.2634,0 -4.52888,0.49475 -6.81446,1.50195 a 0.65947886,0.65947886 0 0 1 -0.004,0.002 c -2.24727,0.96864 -4.2812,2.32375 -6.10742,4.07226 -1.77828,1.70096 -3.22877,3.74913 -4.35743,6.16211 a 0.65947886,0.65947886 0 0 1 -0.002,0.004 c -1.0249,2.15582 -1.52131,4.51013 -1.60547,7.03711 l 10.32227,0 c 0.17696,-2.15444 1.16557,-4.10154 2.96875,-5.71289 1.96331,-1.75445 4.0284,-2.6875 6.14062,-2.6875 l 21.78906,0 0.94922,-1.03516 0,-8.30859 -0.94922,-1.03516 -22.33007,0 z m -94.699222,0.14648 c -12.235128,-3.4e-4 -21.5,8.62538 -21.5,20.22071 0,11.64949 9.26061,20.4414 21.5,20.4414 3.149238,0 5.415258,-0.49827 7.738281,-1.26172 l 0.69336,-0.22851 -6.115235,-5.94922 a 0.65947886,0.65947886 0 0 1 -0.201172,-0.47266 l 0,-0.0762 -0.529296,0.10938 c -0.162596,0.0338 -0.328611,0.0462 -0.521485,0.0469 -0.192873,6.3e-4 -0.449469,-0.004 -0.935547,-0.004 -6.638684,0 -12.294921,-5.45546 -12.294922,-12.55665 0,-7.10186 5.586897,-12.43164 12.294922,-12.43164 6.706235,0 12.03711,5.32241 12.03711,12.43164 0,1.15635 -0.144084,2.26851 -0.410156,3.32227 l -0.06055,0.24219 6.957029,6.95703 0.28711,-0.50195 c 1.67995,-2.94422 2.6172,-6.36955 2.61719,-10.06836 0,-11.54087 -9.265833,-20.22071 -21.556642,-20.22071 z m 43.623052,0.63282 14.69921,0 a 0.65947886,0.65947886 0 0 1 0.66016,0.66015 l 0,7.43946 a 0.65947886,0.65947886 0 0 1 -0.66016,0.66015 l -14.29687,0 c -2.46588,0.23401 -4.35682,0.88595 -5.70508,1.90625 -1.39846,1.05829 -2.50538,2.37398 -3.3418,3.96485 -0.66987,1.45751 -1.01562,3.15329 -1.01562,5.10937 0,1.70615 0.33874,3.27991 1.01367,4.74805 0.83658,1.59151 1.94529,2.90849 3.34375,3.96679 1.34797,1.02008 3.23888,1.67028 5.70508,1.9043 l 14.29687,0 a 0.65947886,0.65947886 0 0 1 0.66016,0.66016 l 0,7.4414 a 0.65947886,0.65947886 0 0 1 -0.66016,0.66016 l -14.69921,0 a 0.65947886,0.65947886 0 0 1 -0.0332,-0.002 c -2.41863,-0.12298 -4.57095,-0.5565 -6.45117,-1.3086 a 0.65947886,0.65947886 0 0 1 -0.006,-0.002 c -1.80307,-0.73762 -3.37412,-1.60188 -4.70703,-2.60156 a 0.65947886,0.65947886 0 0 1 -0.0176,-0.0137 c -1.27429,-1.02766 -2.36916,-2.12183 -3.2832,-3.28516 a 0.65947886,0.65947886 0 0 1 -0.01,-0.0117 c -0.85489,-1.13986 -1.61079,-2.28177 -2.26562,-3.42773 a 0.65947886,0.65947886 0 0 1 -0.0176,-0.0332 c -1.36419,-2.72837 -2.04883,-5.63751 -2.04883,-8.69531 0,-3.29046 0.68109,-6.31921 2.04883,-9.05469 a 0.65947886,0.65947886 0 0 1 0.0176,-0.0332 c 0.65467,-1.14568 1.41051,-2.28953 2.26562,-3.42969 a 0.65947886,0.65947886 0 0 1 0.01,-0.0117 c 0.91592,-1.16571 2.01365,-2.24127 3.29101,-3.23046 l 0.002,-0.002 c 1.33465,-1.04235 2.90863,-1.92906 4.71484,-2.66797 a 0.65947886,0.65947886 0 0 1 0.006,-0.002 c 1.8806,-0.75224 4.03291,-1.18368 6.45117,-1.30664 a 0.65947886,0.65947886 0 0 1 0.0332,-0.002 z m 20.19726,0 7.98047,0 a 0.65947886,0.65947886 0 0 1 0.66016,0.66015 l 0,37.80078 a 0.65947886,0.65947886 0 0 1 -0.66016,0.66016 l -7.98047,0 a 0.65947886,0.65947886 0 0 1 -0.66016,-0.66016 l 0,-37.80078 a 0.65947886,0.65947886 0 0 1 0.66016,-0.66015 z m 32.97852,0 0.01,0 19.73047,0 a 0.65947886,0.65947886 0 0 1 0.66016,0.66015 l 0,7.5 a 0.65947886,0.65947886 0 0 1 -0.66016,0.66016 l -20.2793,0 c -3.02918,0 -5.46323,0.87988 -7.41992,2.64844 a 0.65947886,0.65947886 0 0 1 -0.004,0.006 c -2.00906,1.77723 -3.10039,3.51508 -3.38672,5.19726 a 0.65947886,0.65947886 0 0 1 -0.65039,0.54883 l -7.5,0 a 0.65947886,0.65947886 0 0 1 -0.66016,-0.66016 c 0,-0.8036 0.15457,-1.68306 0.44727,-2.64648 l 0.002,-0.004 c 2.1e-4,-6.9e-4 -2.1e-4,-0.001 0,-0.002 0.29669,-1.01556 0.77322,-2.14583 1.42578,-3.41016 0.66557,-1.28954 1.53272,-2.56973 2.59961,-3.84179 1.08037,-1.28814 2.366,-2.44628 3.84961,-3.47657 1.49129,-1.0756 3.09269,-1.88738 4.79687,-2.42773 a 0.65947886,0.65947886 0 0 1 0.004,-0.002 c 1.78386,-0.55215 4.11864,-0.78984 7.03516,-0.75 z m -96.798832,0.25195 c 11.877204,0 20.673832,8.2662 20.673832,19.33594 0,2.99996 -0.76076,5.72061 -1.90625,8.18164 a 0.65947886,0.65947886 0 0 1 -1.06446,0.18945 l -4.833981,-4.83203 a 0.65947886,0.65947886 0 0 1 -0.179688,-0.59961 c 0.198313,-0.96536 0.359375,-1.91215 0.359375,-2.89063 0,-7.55481 -5.742962,-13.31445 -12.919922,-13.31445 -7.178457,0 -13.177734,5.74682 -13.177734,13.31445 0,7.57185 6.053897,13.43946 13.177734,13.43946 0.563791,0 0.739571,-0.0269 1.066407,-0.0449 a 0.65947886,0.65947886 0 0 1 0.496093,0.18554 l 4.199219,4.08594 a 0.65947886,0.65947886 0 0 1 -0.294922,1.11133 c -1.638101,0.42057 -3.359955,0.73242 -5.595703,0.73242 -11.818352,0 -20.617187,-8.37574 -20.617187,-19.55859 0,-11.12638 8.794832,-19.33627 20.617187,-19.33594 z m -4.146484,16.41016 0,6.60351 6.160156,6.08594 0,-6.19727 a 0.65947886,0.65947886 0 0 1 0.660156,-0.66015 l 6.003906,0 -5.908203,-5.83203 -6.916015,0 z m 1.542968,0.88281 4.740235,0 a 0.65947886,0.65947886 0 0 1 0.462891,0.1914 l 2.779296,2.74415 a 0.65947886,0.65947886 0 0 1 -0.46289,1.1289 l -3.785156,0 0,0.44336 0,3.60547 a 0.65947886,0.65947886 0 0 1 -1.123047,0.46875 l -3.074219,-3.03711 a 0.65947886,0.65947886 0 0 1 -0.197266,-0.46875 l 0,-4.41602 a 0.65947886,0.65947886 0 0 1 0.660156,-0.66015 z m 43.431638,1.77539 c 0.0342,0.32983 0.0455,0.62332 0.13672,1.03711 0.1862,0.62836 0.46723,1.36572 0.84766,2.20508 0.41039,0.78147 0.97727,1.59598 1.70508,2.43945 0.69888,0.76575 1.74359,1.39216 3.17578,1.8457 1.4879,0.41837 3.18387,0.63282 5.08984,0.63282 l 7.69727,0 -3.51172,-8.16016 -15.14063,0 z m 2.37305,0.7793 a 0.65947886,0.65947886 0 0 1 0.002,0 l 11.2793,0 a 0.65947886,0.65947886 0 0 1 0.60547,0.39843 l 2.2793,5.2793 a 0.65947886,0.65947886 0 0 1 -0.60547,0.92187 l -4.97852,0 c -1.83454,0 -3.59857,-0.31333 -5.27344,-0.9414 a 0.65947886,0.65947886 0 0 1 -0.004,-0.002 c -1.79081,-0.68878 -3.0885,-2.35314 -3.92578,-4.78125 a 0.65947886,0.65947886 0 0 1 0.62109,-0.875 z m 64.38672,1.02148 c -0.1752,2.1634 -1.15829,4.15654 -2.95313,5.875 a 0.65947886,0.65947886 0 0 1 -0.004,0.004 c -1.96181,1.83658 -4.03072,2.82031 -6.15235,2.82031 l -21.78906,0 -0.94922,1.03516 0,8.00781 0.94922,1.03711 22.33008,0 c 2.26548,0 4.50988,-0.47671 6.75391,-1.44336 l 0.004,-0.002 c 2.29049,-1.0099 4.32332,-2.36573 6.10742,-4.07226 1.82034,-1.74287 3.28851,-3.79164 4.41602,-6.16211 l 0,-0.002 c 1.0264,-2.19498 1.52523,-4.56763 1.60937,-7.09766 l -10.32226,0 z m 1.33008,0.7793 a 0.65947886,0.65947886 0 0 1 0.002,0 l 7.5,0 a 0.65947886,0.65947886 0 0 1 0.66016,0.66015 c 0,0.80543 -0.15487,1.70256 -0.44727,2.70508 a 0.65947886,0.65947886 0 0 1 -0.002,0.006 c -0.29682,0.97526 -0.77337,2.08751 -1.42578,3.35156 -0.66571,1.2898 -1.53294,2.56805 -2.59961,3.83985 -1.07785,1.28513 -2.35987,2.46433 -3.83985,3.5332 a 0.65947886,0.65947886 0 0 1 -0.01,0.006 c -1.49358,1.03721 -3.11593,1.82769 -4.85742,2.36719 -1.75044,0.55501 -4.06677,0.79253 -6.98829,0.75195 l -19.73046,0 a 0.65947886,0.65947886 0 0 1 -0.66016,-0.66016 l 0,-7.20117 a 0.65947886,0.65947886 0 0 1 0.66016,-0.66015 l 20.27929,0 c 3.02374,0 5.44755,-0.91407 7.40625,-2.75977 2.01584,-1.89954 3.11766,-3.7066 3.4043,-5.39063 a 0.65947886,0.65947886 0 0 1 0.64844,-0.54882 z m -105.148441,2.34765 0,6.69727 10.328125,10.34961 7.046876,0 0,-6.42188 -0.13086,-0.1289 a 0.65947886,0.65947886 0 0 1 -0.002,-0.002 l -10.724612,-10.49414 -6.517579,0 z m 1.542969,0.88477 4.345703,0 a 0.65947886,0.65947886 0 0 1 0.460938,0.18945 l 9.943361,9.73047 a 0.65947886,0.65947886 0 0 1 0.19922,0.4707 l 0,4.22852 a 0.65947886,0.65947886 0 0 1 -0.66016,0.66016 l -4.863281,0 a 0.65947886,0.65947886 0 0 1 -0.466797,-0.19532 l -9.425781,-9.44531 a 0.65947886,0.65947886 0 0 1 -0.193359,-0.46484 l 0,-4.51367 a 0.65947886,0.65947886 0 0 1 0.660156,-0.66016 z" />
  </g>
</svg>
